<svg width="222" height="33" viewBox="0 0 222 33" version="1.1" xmlns="http://www.w3.org/2000/svg" xmlns:xlink="http://www.w3.org/1999/xlink">
<g id="Canvas" fill="none">
<g id="Estate management icon">
<path id="Estate Management" d="M 10.268 13.368C 10.5287 13.368 10.7383 13.4417 10.897 13.589C 11.0557 13.7363 11.135 13.929 11.135 14.167C 11.135 14.4163 11.0557 14.6203 10.897 14.779C 10.7383 14.9263 10.5287 15 10.268 15L 2.584 15C 2.33467 15 2.125 14.915 1.955 14.745C 1.785 14.575 1.7 14.3653 1.7 14.116L 1.7 2.607C 1.7 2.34633 1.785 2.13667 1.955 1.978C 2.125 1.808 2.33467 1.723 2.584 1.723L 10.268 1.723C 10.5287 1.723 10.7383 1.80233 10.897 1.961C 11.0557 2.10833 11.135 2.30667 11.135 2.556C 11.135 2.794 11.0557 2.98667 10.897 3.134C 10.7383 3.28133 10.5287 3.355 10.268 3.355L 3.468 3.355L 3.468 7.486L 8.347 7.486C 8.59633 7.486 8.80033 7.56533 8.959 7.724C 9.129 7.87133 9.214 8.064 9.214 8.302C 9.214 8.54 9.129 8.73833 8.959 8.897C 8.80033 9.04433 8.59633 9.118 8.347 9.118L 3.468 9.118L 3.468 13.368L 10.268 13.368ZM 17.2073 5.633C 17.944 5.633 18.6013 5.752 19.1793 5.99C 19.7687 6.228 20.2333 6.55667 20.5733 6.976C 20.7207 7.15733 20.7943 7.33867 20.7943 7.52C 20.7943 7.71267 20.698 7.88833 20.5053 8.047C 20.3807 8.13767 20.222 8.183 20.0293 8.183C 19.7347 8.183 19.4683 8.07533 19.2303 7.86C 18.947 7.59933 18.6467 7.418 18.3293 7.316C 18.012 7.20267 17.6267 7.146 17.1733 7.146C 16.652 7.146 16.2213 7.23667 15.8813 7.418C 15.5527 7.588 15.3883 7.83167 15.3883 8.149C 15.3883 8.37567 15.445 8.56833 15.5583 8.727C 15.6717 8.87433 15.887 9.016 16.2043 9.152C 16.5217 9.27667 16.9807 9.40133 17.5813 9.526C 18.8167 9.77533 19.6893 10.121 20.1993 10.563C 20.7207 11.005 20.9813 11.5773 20.9813 12.28C 20.9813 12.8013 20.8397 13.2773 20.5563 13.708C 20.273 14.1273 19.8537 14.4617 19.2983 14.711C 18.7543 14.949 18.097 15.068 17.3263 15.068C 16.5557 15.068 15.8303 14.949 15.1503 14.711C 14.4703 14.473 13.9377 14.1613 13.5523 13.776C 13.405 13.6287 13.3313 13.453 13.3313 13.249C 13.3313 12.977 13.4447 12.756 13.6713 12.586C 13.8867 12.4273 14.085 12.348 14.2663 12.348C 14.493 12.348 14.7083 12.45 14.9123 12.654C 15.1277 12.892 15.4507 13.1017 15.8813 13.283C 16.312 13.453 16.771 13.538 17.2583 13.538C 17.9043 13.538 18.403 13.4303 18.7543 13.215C 19.117 12.9997 19.2983 12.7107 19.2983 12.348C 19.2983 11.9967 19.1227 11.7077 18.7713 11.481C 18.42 11.243 17.825 11.0447 16.9863 10.886C 14.8103 10.4667 13.7223 9.57133 13.7223 8.2C 13.7223 7.64467 13.8867 7.17433 14.2153 6.789C 14.544 6.40367 14.9747 6.11467 15.5073 5.922C 16.04 5.72933 16.6067 5.633 17.2073 5.633ZM 27.6448 13.3C 27.8488 13.3 28.0188 13.3793 28.1548 13.538C 28.3021 13.6967 28.3758 13.9007 28.3758 14.15C 28.3758 14.3993 28.2795 14.6033 28.0868 14.762C 27.9055 14.9207 27.6675 15 27.3728 15L 27.0668 15C 26.5115 15 26.0015 14.8583 25.5368 14.575C 25.0835 14.2803 24.7265 13.8837 24.4658 13.385C 24.2051 12.8863 24.0748 12.3253 24.0748 11.702L 24.0748 7.503L 23.2928 7.503C 23.0548 7.503 22.8621 7.435 22.7148 7.299C 22.5675 7.163 22.4938 6.993 22.4938 6.789C 22.4938 6.56233 22.5675 6.381 22.7148 6.245C 22.8621 6.109 23.0548 6.041 23.2928 6.041L 24.0748 6.041L 24.0748 3.593C 24.0748 3.34367 24.1541 3.13967 24.3128 2.981C 24.4715 2.82233 24.6755 2.743 24.9248 2.743C 25.1741 2.743 25.3781 2.82233 25.5368 2.981C 25.6955 3.13967 25.7748 3.34367 25.7748 3.593L 25.7748 6.041L 27.2198 6.041C 27.4578 6.041 27.6505 6.109 27.7978 6.245C 27.9451 6.381 28.0188 6.56233 28.0188 6.789C 28.0188 6.993 27.9451 7.163 27.7978 7.299C 27.6505 7.435 27.4578 7.503 27.2198 7.503L 25.7748 7.503L 25.7748 11.702C 25.7748 12.1553 25.8995 12.535 26.1488 12.841C 26.3981 13.147 26.7041 13.3 27.0668 13.3L 27.6448 13.3ZM 35.233 5.633C 36.1057 5.633 36.8934 5.84267 37.596 6.262C 38.31 6.67 38.871 7.23667 39.279 7.962C 39.6984 8.676 39.908 9.475 39.908 10.359L 39.908 14.15C 39.908 14.3993 39.823 14.609 39.653 14.779C 39.4944 14.9377 39.2904 15.017 39.041 15.017C 38.7917 15.017 38.582 14.9377 38.412 14.779C 38.2534 14.609 38.174 14.3993 38.174 14.15L 38.174 13.521C 37.7774 14.0083 37.2957 14.388 36.729 14.66C 36.1624 14.932 35.5504 15.068 34.893 15.068C 34.077 15.068 33.3347 14.864 32.666 14.456C 32.0087 14.048 31.4874 13.487 31.102 12.773C 30.728 12.0477 30.541 11.243 30.541 10.359C 30.541 9.475 30.745 8.676 31.153 7.962C 31.561 7.23667 32.122 6.67 32.836 6.262C 33.5614 5.84267 34.3604 5.633 35.233 5.633ZM 35.233 13.538C 35.7997 13.538 36.3097 13.402 36.763 13.13C 37.2277 12.8467 37.5904 12.467 37.851 11.991C 38.1117 11.5037 38.242 10.9597 38.242 10.359C 38.242 9.75833 38.1117 9.21433 37.851 8.727C 37.5904 8.23967 37.2277 7.86 36.763 7.588C 36.3097 7.30467 35.7997 7.163 35.233 7.163C 34.6664 7.163 34.1507 7.30467 33.686 7.588C 33.2327 7.86 32.87 8.23967 32.598 8.727C 32.3374 9.21433 32.207 9.75833 32.207 10.359C 32.207 10.9597 32.3374 11.5037 32.598 11.991C 32.87 12.467 33.2327 12.8467 33.686 13.13C 34.1507 13.402 34.6664 13.538 35.233 13.538ZM 46.9597 13.3C 47.1637 13.3 47.3337 13.3793 47.4697 13.538C 47.617 13.6967 47.6907 13.9007 47.6907 14.15C 47.6907 14.3993 47.5944 14.6033 47.4017 14.762C 47.2204 14.9207 46.9824 15 46.6877 15L 46.3817 15C 45.8264 15 45.3164 14.8583 44.8517 14.575C 44.3984 14.2803 44.0414 13.8837 43.7807 13.385C 43.52 12.8863 43.3897 12.3253 43.3897 11.702L 43.3897 7.503L 42.6077 7.503C 42.3697 7.503 42.177 7.435 42.0297 7.299C 41.8824 7.163 41.8087 6.993 41.8087 6.789C 41.8087 6.56233 41.8824 6.381 42.0297 6.245C 42.177 6.109 42.3697 6.041 42.6077 6.041L 43.3897 6.041L 43.3897 3.593C 43.3897 3.34367 43.469 3.13967 43.6277 2.981C 43.7864 2.82233 43.9904 2.743 44.2397 2.743C 44.489 2.743 44.693 2.82233 44.8517 2.981C 45.0104 3.13967 45.0897 3.34367 45.0897 3.593L 45.0897 6.041L 46.5347 6.041C 46.7727 6.041 46.9654 6.109 47.1127 6.245C 47.26 6.381 47.3337 6.56233 47.3337 6.789C 47.3337 6.993 47.26 7.163 47.1127 7.299C 46.9654 7.435 46.7727 7.503 46.5347 7.503L 45.0897 7.503L 45.0897 11.702C 45.0897 12.1553 45.2144 12.535 45.4637 12.841C 45.713 13.147 46.019 13.3 46.3817 13.3L 46.9597 13.3ZM 58.679 10.206C 58.679 10.4213 58.6053 10.6027 58.458 10.75C 58.3106 10.886 58.1236 10.954 57.897 10.954L 51.437 10.954C 51.5616 11.7473 51.9186 12.3877 52.508 12.875C 53.1086 13.3623 53.8396 13.606 54.701 13.606C 55.041 13.606 55.3923 13.5437 55.755 13.419C 56.129 13.2943 56.435 13.1413 56.673 12.96C 56.8316 12.8353 57.0186 12.773 57.234 12.773C 57.4493 12.773 57.6193 12.8297 57.744 12.943C 57.948 13.113 58.05 13.3057 58.05 13.521C 58.05 13.725 57.9593 13.895 57.778 14.031C 57.3926 14.337 56.911 14.5863 56.333 14.779C 55.7663 14.9717 55.2223 15.068 54.701 15.068C 53.7716 15.068 52.9386 14.8697 52.202 14.473C 51.4653 14.065 50.8873 13.504 50.468 12.79C 50.06 12.076 49.856 11.2657 49.856 10.359C 49.856 9.45233 50.0486 8.642 50.434 7.928C 50.8306 7.20267 51.3746 6.64167 52.066 6.245C 52.7686 5.837 53.562 5.633 54.446 5.633C 55.3186 5.633 56.0723 5.82567 56.707 6.211C 57.3416 6.59633 57.829 7.13467 58.169 7.826C 58.509 8.51733 58.679 9.31067 58.679 10.206ZM 54.446 7.095C 53.6186 7.095 52.9443 7.32167 52.423 7.775C 51.913 8.22833 51.59 8.83467 51.454 9.594L 57.115 9.594C 57.013 8.83467 56.7296 8.22833 56.265 7.775C 55.8003 7.32167 55.194 7.095 54.446 7.095ZM 79.471 1.723C 79.7203 1.723 79.93 1.808 80.1 1.978C 80.27 2.148 80.355 2.35767 80.355 2.607L 80.355 14.116C 80.355 14.3653 80.2643 14.575 80.083 14.745C 79.913 14.915 79.709 15 79.471 15C 79.2217 15 79.012 14.915 78.842 14.745C 78.672 14.575 78.587 14.3653 78.587 14.116L 78.587 5.667L 74.473 14.048C 74.2803 14.3427 74.0253 14.49 73.708 14.49C 73.334 14.49 73.062 14.3143 72.892 13.963L 68.829 5.82L 68.829 14.116C 68.829 14.3653 68.744 14.575 68.574 14.745C 68.404 14.915 68.1943 15 67.945 15C 67.6957 15 67.486 14.915 67.316 14.745C 67.146 14.575 67.061 14.3653 67.061 14.116L 67.061 2.607C 67.061 2.35767 67.146 2.148 67.316 1.978C 67.486 1.808 67.6957 1.723 67.945 1.723C 68.285 1.723 68.5457 1.88167 68.727 2.199L 73.776 12.314L 78.689 2.199C 78.8703 1.88167 79.131 1.723 79.471 1.723ZM 88.3182 5.633C 89.1909 5.633 89.9785 5.84267 90.6812 6.262C 91.3952 6.67 91.9562 7.23667 92.3642 7.962C 92.7835 8.676 92.9932 9.475 92.9932 10.359L 92.9932 14.15C 92.9932 14.3993 92.9082 14.609 92.7382 14.779C 92.5795 14.9377 92.3755 15.017 92.1262 15.017C 91.8769 15.017 91.6672 14.9377 91.4972 14.779C 91.3385 14.609 91.2592 14.3993 91.2592 14.15L 91.2592 13.521C 90.8625 14.0083 90.3809 14.388 89.8142 14.66C 89.2475 14.932 88.6355 15.068 87.9782 15.068C 87.1622 15.068 86.4199 14.864 85.7512 14.456C 85.0939 14.048 84.5725 13.487 84.1872 12.773C 83.8132 12.0477 83.6262 11.243 83.6262 10.359C 83.6262 9.475 83.8302 8.676 84.2382 7.962C 84.6462 7.23667 85.2072 6.67 85.9212 6.262C 86.6465 5.84267 87.4455 5.633 88.3182 5.633ZM 88.3182 13.538C 88.8849 13.538 89.3949 13.402 89.8482 13.13C 90.3129 12.8467 90.6755 12.467 90.9362 11.991C 91.1969 11.5037 91.3272 10.9597 91.3272 10.359C 91.3272 9.75833 91.1969 9.21433 90.9362 8.727C 90.6755 8.23967 90.3129 7.86 89.8482 7.588C 89.3949 7.30467 88.8849 7.163 88.3182 7.163C 87.7515 7.163 87.2359 7.30467 86.7712 7.588C 86.3179 7.86 85.9552 8.23967 85.6832 8.727C 85.4225 9.21433 85.2922 9.75833 85.2922 10.359C 85.2922 10.9597 85.4225 11.5037 85.6832 11.991C 85.9552 12.467 86.3179 12.8467 86.7712 13.13C 87.2359 13.402 87.7515 13.538 88.3182 13.538ZM 100.708 5.616C 101.49 5.616 102.193 5.786 102.816 6.126C 103.439 6.466 103.927 6.96467 104.278 7.622C 104.629 8.268 104.805 9.05 104.805 9.968L 104.805 14.15C 104.805 14.3993 104.72 14.609 104.55 14.779C 104.391 14.9377 104.187 15.017 103.938 15.017C 103.689 15.017 103.479 14.9377 103.309 14.779C 103.15 14.609 103.071 14.3993 103.071 14.15L 103.071 9.968C 103.071 9.05 102.822 8.35867 102.323 7.894C 101.836 7.418 101.184 7.18 100.368 7.18C 99.8919 7.18 99.4555 7.27633 99.0589 7.469C 98.6735 7.66167 98.3675 7.92233 98.1409 8.251C 97.9255 8.57967 97.8179 8.948 97.8179 9.356L 97.8179 14.15C 97.8179 14.3993 97.7385 14.609 97.5799 14.779C 97.4212 14.9377 97.2115 15.017 96.9509 15.017C 96.7015 15.017 96.4919 14.9377 96.3219 14.779C 96.1632 14.609 96.0839 14.3993 96.0839 14.15L 96.0839 6.568C 96.0839 6.30733 96.1632 6.09767 96.3219 5.939C 96.4919 5.78033 96.7015 5.701 96.9509 5.701C 97.2115 5.701 97.4212 5.78033 97.5799 5.939C 97.7385 6.09767 97.8179 6.30733 97.8179 6.568L 97.8179 6.755C 98.1805 6.39233 98.6112 6.11467 99.1099 5.922C 99.6085 5.718 100.141 5.616 100.708 5.616ZM 112.398 5.633C 113.27 5.633 114.058 5.84267 114.761 6.262C 115.475 6.67 116.036 7.23667 116.444 7.962C 116.863 8.676 117.073 9.475 117.073 10.359L 117.073 14.15C 117.073 14.3993 116.988 14.609 116.818 14.779C 116.659 14.9377 116.455 15.017 116.206 15.017C 115.956 15.017 115.747 14.9377 115.577 14.779C 115.418 14.609 115.339 14.3993 115.339 14.15L 115.339 13.521C 114.942 14.0083 114.46 14.388 113.894 14.66C 113.327 14.932 112.715 15.068 112.058 15.068C 111.242 15.068 110.499 14.864 109.831 14.456C 109.173 14.048 108.652 13.487 108.267 12.773C 107.893 12.0477 107.706 11.243 107.706 10.359C 107.706 9.475 107.91 8.676 108.318 7.962C 108.726 7.23667 109.287 6.67 110.001 6.262C 110.726 5.84267 111.525 5.633 112.398 5.633ZM 112.398 13.538C 112.964 13.538 113.474 13.402 113.928 13.13C 114.392 12.8467 114.755 12.467 115.016 11.991C 115.276 11.5037 115.407 10.9597 115.407 10.359C 115.407 9.75833 115.276 9.21433 115.016 8.727C 114.755 8.23967 114.392 7.86 113.928 7.588C 113.474 7.30467 112.964 7.163 112.398 7.163C 111.831 7.163 111.315 7.30467 110.851 7.588C 110.397 7.86 110.035 8.23967 109.763 8.727C 109.502 9.21433 109.372 9.75833 109.372 10.359C 109.372 10.9597 109.502 11.5037 109.763 11.991C 110.035 12.467 110.397 12.8467 110.851 13.13C 111.315 13.402 111.831 13.538 112.398 13.538ZM 124.379 5.633C 125.275 5.633 126.074 5.837 126.776 6.245C 127.49 6.64167 128.046 7.197 128.442 7.911C 128.85 8.625 129.054 9.441 129.054 10.359L 129.054 14.031C 129.054 14.9263 128.856 15.7423 128.459 16.479C 128.063 17.2157 127.502 17.7937 126.776 18.213C 126.062 18.6437 125.252 18.859 124.345 18.859C 123.529 18.859 122.77 18.6947 122.067 18.366C 121.365 18.0487 120.775 17.5897 120.299 16.989C 120.175 16.8303 120.112 16.6717 120.112 16.513C 120.112 16.275 120.231 16.071 120.469 15.901C 120.628 15.799 120.787 15.748 120.945 15.748C 121.229 15.748 121.461 15.867 121.642 16.105C 121.948 16.5017 122.334 16.802 122.798 17.006C 123.263 17.2213 123.79 17.329 124.379 17.329C 124.935 17.329 125.439 17.193 125.892 16.921C 126.346 16.6603 126.708 16.2693 126.98 15.748C 127.252 15.238 127.388 14.626 127.388 13.912L 127.388 13.079C 127.037 13.7023 126.572 14.1897 125.994 14.541C 125.416 14.8923 124.765 15.068 124.039 15.068C 123.201 15.068 122.447 14.8697 121.778 14.473C 121.121 14.065 120.605 13.504 120.231 12.79C 119.869 12.076 119.687 11.2657 119.687 10.359C 119.687 9.441 119.886 8.625 120.282 7.911C 120.679 7.197 121.234 6.64167 121.948 6.245C 122.662 5.837 123.473 5.633 124.379 5.633ZM 124.379 13.538C 124.957 13.538 125.473 13.402 125.926 13.13C 126.391 12.858 126.748 12.484 126.997 12.008C 127.258 11.5207 127.388 10.971 127.388 10.359C 127.388 9.747 127.258 9.19733 126.997 8.71C 126.748 8.22267 126.391 7.843 125.926 7.571C 125.473 7.299 124.957 7.163 124.379 7.163C 123.801 7.163 123.28 7.299 122.815 7.571C 122.362 7.843 122.005 8.22267 121.744 8.71C 121.484 9.19733 121.353 9.747 121.353 10.359C 121.353 10.971 121.484 11.5207 121.744 12.008C 122.005 12.484 122.362 12.858 122.815 13.13C 123.28 13.402 123.801 13.538 124.379 13.538ZM 140.492 10.206C 140.492 10.4213 140.418 10.6027 140.271 10.75C 140.124 10.886 139.937 10.954 139.71 10.954L 133.25 10.954C 133.375 11.7473 133.732 12.3877 134.321 12.875C 134.922 13.3623 135.653 13.606 136.514 13.606C 136.854 13.606 137.205 13.5437 137.568 13.419C 137.942 13.2943 138.248 13.1413 138.486 12.96C 138.645 12.8353 138.832 12.773 139.047 12.773C 139.262 12.773 139.432 12.8297 139.557 12.943C 139.761 13.113 139.863 13.3057 139.863 13.521C 139.863 13.725 139.772 13.895 139.591 14.031C 139.206 14.337 138.724 14.5863 138.146 14.779C 137.579 14.9717 137.035 15.068 136.514 15.068C 135.585 15.068 134.752 14.8697 134.015 14.473C 133.278 14.065 132.7 13.504 132.281 12.79C 131.873 12.076 131.669 11.2657 131.669 10.359C 131.669 9.45233 131.862 8.642 132.247 7.928C 132.644 7.20267 133.188 6.64167 133.879 6.245C 134.582 5.837 135.375 5.633 136.259 5.633C 137.132 5.633 137.885 5.82567 138.52 6.211C 139.155 6.59633 139.642 7.13467 139.982 7.826C 140.322 8.51733 140.492 9.31067 140.492 10.206ZM 136.259 7.095C 135.432 7.095 134.757 7.32167 134.236 7.775C 133.726 8.22833 133.403 8.83467 133.267 9.594L 138.928 9.594C 138.826 8.83467 138.543 8.22833 138.078 7.775C 137.613 7.32167 137.007 7.095 136.259 7.095ZM 152.989 5.616C 153.975 5.616 154.768 5.939 155.369 6.585C 155.981 7.231 156.287 8.132 156.287 9.288L 156.287 14.15C 156.287 14.3993 156.207 14.609 156.049 14.779C 155.89 14.9377 155.68 15.017 155.42 15.017C 155.17 15.017 154.961 14.9377 154.791 14.779C 154.632 14.609 154.553 14.3993 154.553 14.15L 154.553 9.288C 154.553 8.59667 154.377 8.07533 154.026 7.724C 153.686 7.36133 153.227 7.18 152.649 7.18C 152.059 7.18 151.572 7.384 151.187 7.792C 150.813 8.2 150.626 8.72133 150.626 9.356L 150.626 14.15C 150.626 14.3993 150.546 14.609 150.388 14.779C 150.229 14.9377 150.019 15.017 149.759 15.017C 149.509 15.017 149.3 14.9377 149.13 14.779C 148.971 14.609 148.892 14.3993 148.892 14.15L 148.892 9.288C 148.892 8.59667 148.716 8.07533 148.365 7.724C 148.025 7.36133 147.566 7.18 146.988 7.18C 146.387 7.18 145.894 7.384 145.509 7.792C 145.135 8.2 144.948 8.72133 144.948 9.356L 144.948 14.15C 144.948 14.3993 144.868 14.609 144.71 14.779C 144.551 14.9377 144.341 15.017 144.081 15.017C 143.831 15.017 143.622 14.9377 143.452 14.779C 143.293 14.609 143.214 14.3993 143.214 14.15L 143.214 6.585C 143.214 6.32433 143.293 6.11467 143.452 5.956C 143.622 5.79733 143.831 5.718 144.081 5.718C 144.33 5.718 144.534 5.79733 144.693 5.956C 144.851 6.10333 144.936 6.30167 144.948 6.551C 145.242 6.25633 145.594 6.02967 146.002 5.871C 146.41 5.701 146.852 5.616 147.328 5.616C 147.906 5.616 148.421 5.735 148.875 5.973C 149.339 6.19967 149.719 6.52833 150.014 6.959C 150.354 6.53967 150.779 6.211 151.289 5.973C 151.799 5.735 152.365 5.616 152.989 5.616ZM 168.025 10.206C 168.025 10.4213 167.951 10.6027 167.804 10.75C 167.656 10.886 167.469 10.954 167.243 10.954L 160.783 10.954C 160.907 11.7473 161.264 12.3877 161.854 12.875C 162.454 13.3623 163.185 13.606 164.047 13.606C 164.387 13.606 164.738 13.5437 165.101 13.419C 165.475 13.2943 165.781 13.1413 166.019 12.96C 166.177 12.8353 166.364 12.773 166.58 12.773C 166.795 12.773 166.965 12.8297 167.09 12.943C 167.294 13.113 167.396 13.3057 167.396 13.521C 167.396 13.725 167.305 13.895 167.124 14.031C 166.738 14.337 166.257 14.5863 165.679 14.779C 165.112 14.9717 164.568 15.068 164.047 15.068C 163.117 15.068 162.284 14.8697 161.548 14.473C 160.811 14.065 160.233 13.504 159.814 12.79C 159.406 12.076 159.202 11.2657 159.202 10.359C 159.202 9.45233 159.394 8.642 159.78 7.928C 160.176 7.20267 160.72 6.64167 161.412 6.245C 162.114 5.837 162.908 5.633 163.792 5.633C 164.664 5.633 165.418 5.82567 166.053 6.211C 166.687 6.59633 167.175 7.13467 167.515 7.826C 167.855 8.51733 168.025 9.31067 168.025 10.206ZM 163.792 7.095C 162.964 7.095 162.29 7.32167 161.769 7.775C 161.259 8.22833 160.936 8.83467 160.8 9.594L 166.461 9.594C 166.359 8.83467 166.075 8.22833 165.611 7.775C 165.146 7.32167 164.54 7.095 163.792 7.095ZM 175.37 5.616C 176.152 5.616 176.855 5.786 177.478 6.126C 178.102 6.466 178.589 6.96467 178.94 7.622C 179.292 8.268 179.467 9.05 179.467 9.968L 179.467 14.15C 179.467 14.3993 179.382 14.609 179.212 14.779C 179.054 14.9377 178.85 15.017 178.6 15.017C 178.351 15.017 178.141 14.9377 177.971 14.779C 177.813 14.609 177.733 14.3993 177.733 14.15L 177.733 9.968C 177.733 9.05 177.484 8.35867 176.985 7.894C 176.498 7.418 175.846 7.18 175.03 7.18C 174.554 7.18 174.118 7.27633 173.721 7.469C 173.336 7.66167 173.03 7.92233 172.803 8.251C 172.588 8.57967 172.48 8.948 172.48 9.356L 172.48 14.15C 172.48 14.3993 172.401 14.609 172.242 14.779C 172.084 14.9377 171.874 15.017 171.613 15.017C 171.364 15.017 171.154 14.9377 170.984 14.779C 170.826 14.609 170.746 14.3993 170.746 14.15L 170.746 6.568C 170.746 6.30733 170.826 6.09767 170.984 5.939C 171.154 5.78033 171.364 5.701 171.613 5.701C 171.874 5.701 172.084 5.78033 172.242 5.939C 172.401 6.09767 172.48 6.30733 172.48 6.568L 172.48 6.755C 172.843 6.39233 173.274 6.11467 173.772 5.922C 174.271 5.718 174.804 5.616 175.37 5.616ZM 186.805 13.3C 187.009 13.3 187.179 13.3793 187.315 13.538C 187.463 13.6967 187.536 13.9007 187.536 14.15C 187.536 14.3993 187.44 14.6033 187.247 14.762C 187.066 14.9207 186.828 15 186.533 15L 186.227 15C 185.672 15 185.162 14.8583 184.697 14.575C 184.244 14.2803 183.887 13.8837 183.626 13.385C 183.366 12.8863 183.235 12.3253 183.235 11.702L 183.235 7.503L 182.453 7.503C 182.215 7.503 182.023 7.435 181.875 7.299C 181.728 7.163 181.654 6.993 181.654 6.789C 181.654 6.56233 181.728 6.381 181.875 6.245C 182.023 6.109 182.215 6.041 182.453 6.041L 183.235 6.041L 183.235 3.593C 183.235 3.34367 183.315 3.13967 183.473 2.981C 183.632 2.82233 183.836 2.743 184.085 2.743C 184.335 2.743 184.539 2.82233 184.697 2.981C 184.856 3.13967 184.935 3.34367 184.935 3.593L 184.935 6.041L 186.38 6.041C 186.618 6.041 186.811 6.109 186.958 6.245C 187.106 6.381 187.179 6.56233 187.179 6.789C 187.179 6.993 187.106 7.163 186.958 7.299C 186.811 7.435 186.618 7.503 186.38 7.503L 184.935 7.503L 184.935 11.702C 184.935 12.1553 185.06 12.535 185.309 12.841C 185.559 13.147 185.865 13.3 186.227 13.3L 186.805 13.3Z" transform="translate(34 14)" fill="white"/>
<g id="home icon">
<g id="home">
<path id="Vector" d="M 25.1168 -4.81428e-08C 24.6385 -4.81428e-08 24.2507 0.391493 24.2507 0.874419L 24.2507 14.7929L 17.3222 14.7929L 17.3222 7.19531C 17.3222 4.7843 15.3793 2.82288 12.9915 2.82288C 10.6036 2.82288 8.66073 4.78443 8.66073 7.19531L 8.66073 14.793L 1.73216 14.793L 1.73216 0.874485C 1.73216 0.39156 1.34433 6.61482e-05 0.866079 6.61482e-05C 0.387825 6.61482e-05 -2.1855e-08 0.39156 -2.1855e-08 0.874485L -2.1855e-08 15.6674C -2.1855e-08 16.1504 0.387825 16.5419 0.866079 16.5419L 9.52681 16.5419C 9.98228 16.5419 10.355 16.1866 10.3895 15.7355C 10.3916 15.7151 10.3929 15.6928 10.3929 15.6674L 10.3929 7.19538C 10.3929 5.7487 11.5586 4.57179 12.9915 4.57179C 14.4243 4.57179 15.59 5.74877 15.59 7.19538L 15.59 15.6674C 15.59 15.6926 15.5913 15.7146 15.5934 15.7348C 15.6275 16.1861 16.0004 16.5419 16.4561 16.5419L 25.1168 16.5419C 25.5951 16.5419 25.9829 16.1504 25.9829 15.6674L 25.9829 0.874485C 25.9828 0.391494 25.5951 -4.81428e-08 25.1168 -4.81428e-08Z" transform="translate(4.00854 13.4581)" fill="white"/>
<path id="Vector_2" d="M 32.9788 11.8491L 17.1783 0.168896C 16.8736 -0.0562986 16.4597 -0.0562986 16.1552 0.168896L 0.354529 11.8491C -0.0314076 12.1344 -0.115262 12.6816 0.167355 13.0712C 0.449972 13.4609 0.991963 13.5454 1.37783 13.2602L 16.6667 1.95816L 31.9555 13.2601C 32.1097 13.3742 32.2888 13.4291 32.4664 13.4291C 32.7331 13.4291 32.9963 13.3052 33.1659 13.0712C 33.4486 12.6816 33.3648 12.1344 32.9788 11.8491Z" transform="translate(0.333008 0)" fill="white"/>
</g>
</g>
</g>
</g>
</svg>
