<svg width="72" height="56" viewBox="0 0 72 56" version="1.1" xmlns="http://www.w3.org/2000/svg" xmlns:xlink="http://www.w3.org/1999/xlink">
<g id="Canvas" fill="none">
<g id="group">
<g id="Group">
<g id="Group_2">
<g id="Vector">
<path d="M 31.2723 2.6128L 30.638 1.92774C 30.6085 1.89587 30.5938 1.87994 30.5643 1.84808C 27.0535 4.09445 23.0117 5.30526 18.8667 5.30526C 13.6595 5.30526 8.70315 3.44125 4.6761 -9.72395e-07C 3.58452 0.812517 2.46343 1.72062 1.37185 2.69246C 0.501538 3.45718 -4.50168e-07 4.6202 -4.50168e-07 5.83101L -4.50168e-07 11.5824L 18.9257 11.5824L 37.8366 11.5824L 37.8366 9.68649L 32.2754 3.68023L 31.2723 2.6128Z" transform="translate(17.067 41.1198)" fill="#333333"/>
</g>
<g id="Vector_2">
<path d="M 8.6884 4.86198e-07L 7.84759 4.86198e-07L 7.00678 4.86198e-07C 3.14199 4.86198e-07 4.50168e-07 3.39346 4.50168e-07 7.56757L 4.50168e-07 15.9636C 4.50168e-07 17.2859 0.619545 18.433 1.56362 19.1181L 1.56362 26.2873C 3.46651 27.3388 5.59067 27.9124 7.80333 27.9124C 10.0455 27.9124 12.1992 27.3388 14.1168 26.2555L 14.1168 19.134C 15.0609 18.4489 15.6804 17.3018 15.6804 15.9795L 15.6804 7.5835C 15.6952 3.37752 12.5532 4.86198e-07 8.6884 4.86198e-07Z" transform="translate(28.1451 8.60313)" fill="#333333"/>
</g>
<g id="Vector_3">
<path d="M 15.3559 29.5374C 11.3141 25.9528 6.96252 23.5789 6.07745 23.101C 5.9742 23.0532 5.91519 22.9417 5.91519 22.8142L 5.91519 16.0273C 6.71175 15.4538 7.22804 14.4819 7.22804 13.3826L 7.22804 6.34083C 7.22804 2.83585 4.60234 4.86198e-07 1.3571 4.86198e-07L 0.649049 4.86198e-07L 1.80067e-06 4.86198e-07C 2.06516 3.6165 3.25999 7.75875 3.4075 12.0762C 3.58452 16.8876 2.46344 21.6034 0.221268 25.6819C 0.250771 25.7138 0.265522 25.7297 0.295024 25.7616L 0.590046 26.0802L 0.92932 26.4467L 1.93239 27.53L 10.7241 37.0253L 16.5065 37.0253L 16.5065 32.198C 16.5065 31.1624 16.0787 30.1906 15.3559 29.5374Z" transform="translate(55.4934 8.60313)" fill="#333333"/>
</g>
<g id="Vector_4">
<path d="M 51.0314 50.8859L 39.4223 38.3477L 38.4192 37.2643L 38.08 36.8979L 37.785 36.5792L 37.0031 37.4236L 35.3215 35.6074C 41.989 27.1158 41.6202 14.3704 34.1857 6.34083C 30.2766 2.11892 25.1433 4.86198e-07 20.0246 4.86198e-07C 14.906 4.86198e-07 9.77261 2.11892 5.86356 6.34083C -1.95452 14.7846 -1.95452 28.4859 5.86356 36.9297C 9.77261 41.1516 14.906 43.2706 20.0246 43.2706C 24.627 43.2706 29.2293 41.5659 32.9613 38.1565L 34.643 39.9727L 33.8612 40.8171L 34.4955 41.5021L 35.4985 42.5855L 47.1076 55.1238C 47.6534 55.7132 48.3615 56 49.0695 56C 49.7776 56 50.4856 55.7132 51.0314 55.1238C 52.1083 53.9607 52.1083 52.0649 51.0314 50.8859C 51.0314 50.9019 51.0314 50.8859 51.0314 50.8859ZM 31.8255 34.3966C 28.5655 37.9175 24.2877 39.67 20.0246 39.67C 15.7468 39.67 11.4837 37.9175 8.22374 34.3966C 1.70375 27.3548 1.70375 15.9477 8.22374 8.90583C 11.4837 5.38492 15.7616 3.63243 20.0246 3.63243C 24.3024 3.63243 28.5655 5.38492 31.8255 8.90583C 38.3455 15.9317 38.3455 27.3548 31.8255 34.3966Z" transform="translate(15.924 0)" fill="#333333"/>
</g>
<g id="Vector_5">
<path d="M 16.4327 4.86198e-07L 15.8574 4.86198e-07L 15.1494 4.86198e-07C 11.9041 4.86198e-07 9.27844 2.83585 9.27844 6.34083L 9.27844 13.3826C 9.27844 14.4819 9.79473 15.4538 10.5913 16.0273L 10.5913 22.8142C 10.5913 22.9417 10.5323 23.0373 10.429 23.101C 9.54396 23.563 5.19239 25.9528 1.15059 29.5374C 0.427782 30.1906 0 31.1624 0 32.1821L 0 37.0094L 14.3381 37.0094C 14.6331 35.3684 15.4297 33.8868 16.6392 32.8193C 17.6128 31.959 18.6011 31.1465 19.5747 30.3977C 12.0369 22.1132 10.9896 9.49531 16.4327 4.86198e-07Z" transform="translate(0 8.60313)" fill="#333333"/>
</g>
</g>
</g>
</g>
</g>
</svg>

