<svg width="48" height="42" viewBox="0 0 48 42" version="1.1" xmlns="http://www.w3.org/2000/svg" xmlns:xlink="http://www.w3.org/1999/xlink">
<g id="Canvas" fill="none">
<g id="home icon">
<g id="home">
<g id="Vector">
<path d="M 35.1635 -6.74e-08C 34.4939 -6.74e-08 33.9509 0.548091 33.9509 1.22419L 33.9509 20.7101L 24.251 20.7101L 24.251 10.0734C 24.251 6.69802 21.5311 3.95204 18.188 3.95204C 14.845 3.95204 12.125 6.6982 12.125 10.0734L 12.125 20.7101L 2.42502 20.7101L 2.42502 1.22428C 2.42502 0.548183 1.88207 9.26076e-05 1.21251 9.26076e-05C 0.542955 9.26076e-05 -3.0597e-08 0.548183 -3.0597e-08 1.22428L -3.0597e-08 21.9344C -3.0597e-08 22.6105 0.542955 23.1586 1.21251 23.1586L 13.3375 23.1586C 13.9752 23.1586 14.497 22.6612 14.5453 22.0298C 14.5482 22.0011 14.55 21.9699 14.55 21.9344L 14.55 10.0735C 14.55 8.04818 16.182 6.40051 18.188 6.40051C 20.1941 6.40051 21.826 8.04828 21.826 10.0735L 21.826 21.9344C 21.826 21.9697 21.8278 22.0004 21.8308 22.0287C 21.8785 22.6606 22.4005 23.1586 23.0385 23.1586L 35.1635 23.1586C 35.8332 23.1586 36.3761 22.6105 36.3761 21.9344L 36.3761 1.22428C 36.376 0.548091 35.8331 -6.74e-08 35.1635 -6.74e-08Z" transform="translate(5.81201 18.8414)" fill="#2F80ED"/>
</g>
<g id="Vector_2">
<path d="M 46.1703 16.5887L 24.0497 0.236454C 23.6231 -0.078818 23.0436 -0.078818 22.6172 0.236454L 0.496341 16.5887C -0.0439706 16.9882 -0.161366 17.7542 0.234297 18.2997C 0.62996 18.8452 1.38875 18.9636 1.92897 18.5643L 23.3333 2.74142L 44.7377 18.5642C 44.9536 18.7239 45.2044 18.8007 45.453 18.8007C 45.8264 18.8007 46.1948 18.6272 46.4323 18.2996C 46.8281 17.7542 46.7107 16.9882 46.1703 16.5887Z" transform="translate(0.66626 0)" fill="#2F80ED"/>
</g>
</g>
</g>
</g>
</svg>

