<svg width="34" height="30" viewBox="0 0 34 30" version="1.1" xmlns="http://www.w3.org/2000/svg" xmlns:xlink="http://www.w3.org/1999/xlink">
<g id="Canvas" fill="none">
<g id="home icon">
<g id="home">
<g id="Vector">
<path d="M 25.1168 -4.81428e-08C 24.6385 -4.81428e-08 24.2507 0.391493 24.2507 0.874419L 24.2507 14.7929L 17.3222 14.7929L 17.3222 7.19531C 17.3222 4.7843 15.3793 2.82288 12.9915 2.82288C 10.6036 2.82288 8.66073 4.78443 8.66073 7.19531L 8.66073 14.793L 1.73216 14.793L 1.73216 0.874485C 1.73216 0.39156 1.34433 6.61482e-05 0.866079 6.61482e-05C 0.387825 6.61482e-05 -2.1855e-08 0.39156 -2.1855e-08 0.874485L -2.1855e-08 15.6674C -2.1855e-08 16.1504 0.387825 16.5419 0.866079 16.5419L 9.52681 16.5419C 9.98228 16.5419 10.355 16.1866 10.3895 15.7355C 10.3916 15.7151 10.3929 15.6928 10.3929 15.6674L 10.3929 7.19538C 10.3929 5.7487 11.5586 4.57179 12.9915 4.57179C 14.4243 4.57179 15.59 5.74877 15.59 7.19538L 15.59 15.6674C 15.59 15.6926 15.5913 15.7146 15.5934 15.7348C 15.6275 16.1861 16.0004 16.5419 16.4561 16.5419L 25.1168 16.5419C 25.5951 16.5419 25.9829 16.1504 25.9829 15.6674L 25.9829 0.874485C 25.9828 0.391494 25.5951 -4.81428e-08 25.1168 -4.81428e-08Z" transform="translate(4.00854 13.4581)" fill="white"/>
</g>
<g id="Vector_2">
<path d="M 32.9788 11.8491L 17.1783 0.168896C 16.8736 -0.0562986 16.4597 -0.0562986 16.1552 0.168896L 0.354529 11.8491C -0.0314076 12.1344 -0.115262 12.6816 0.167355 13.0712C 0.449972 13.4609 0.991963 13.5454 1.37783 13.2602L 16.6667 1.95816L 31.9555 13.2601C 32.1097 13.3742 32.2888 13.4291 32.4664 13.4291C 32.7331 13.4291 32.9963 13.3052 33.1659 13.0712C 33.4486 12.6816 33.3648 12.1344 32.9788 11.8491Z" transform="translate(0.333008 0)" fill="white"/>
</g>
</g>
</g>
</g>
</svg>

