<svg width="238" height="33" viewBox="0 0 238 33" version="1.1" xmlns="http://www.w3.org/2000/svg" xmlns:xlink="http://www.w3.org/1999/xlink">
<g id="Canvas" fill="none">
<g id="Logo 2">
<g id="E.M Solutions">
<path d="M 13.9844 30.9609C 13.5156 30.987 12.9036 31 12.1484 31C 11.3932 31.026 10.5469 31.0391 9.60938 31.0391C 8.67188 31.0391 7.68229 31.026 6.64062 31C 5.625 30.974 4.63542 30.9349 3.67188 30.8828C 3.61979 30.8828 3.56771 30.8958 3.51562 30.9219C 3.48958 30.9219 3.45052 30.9219 3.39844 30.9219C 2.98177 30.9219 2.63021 30.8047 2.34375 30.5703C 2.08333 30.3359 1.95312 29.9974 1.95312 29.5547C 1.97917 28.8776 2.00521 28.0964 2.03125 27.2109C 2.08333 26.2995 2.1224 25.3359 2.14844 24.3203C 2.20052 23.3047 2.22656 22.263 2.22656 21.1953C 2.2526 20.1016 2.26562 19.0339 2.26562 17.9922C 2.26562 16.6641 2.23958 15.4271 2.1875 14.2812C 2.13542 13.1354 2.10938 12.1458 2.10938 11.3125C 2.10938 10.9479 2.2526 10.6875 2.53906 10.5312C 2.85156 10.375 3.1901 10.2969 3.55469 10.2969C 3.9974 10.2969 4.51823 10.3229 5.11719 10.375C 5.71615 10.4271 6.35417 10.4531 7.03125 10.4531C 7.60417 10.4531 8.20312 10.4531 8.82812 10.4531C 9.45312 10.4531 10.0521 10.4531 10.625 10.4531C 11.224 10.4271 11.7708 10.4141 12.2656 10.4141C 12.7865 10.4141 13.2292 10.4141 13.5938 10.4141C 13.9062 10.5443 14.1276 10.7526 14.2578 11.0391C 14.4141 11.2995 14.4922 11.5729 14.4922 11.8594C 14.4922 12.1458 14.401 12.4193 14.2188 12.6797C 14.0365 12.9141 13.8281 13.0703 13.5938 13.1484C 12.8646 13.1745 12.1615 13.1875 11.4844 13.1875C 10.8073 13.1875 10.1172 13.1875 9.41406 13.1875C 8.73698 13.1875 8.03385 13.1745 7.30469 13.1484C 6.60156 13.1224 5.85938 13.0964 5.07812 13.0703C 5.10417 14.0859 5.11719 15.1536 5.11719 16.2734C 5.14323 17.3672 5.15625 18.474 5.15625 19.5938C 5.15625 21.2344 5.13021 22.8229 5.07812 24.3594C 5.05208 25.8698 5.02604 27.1849 5 28.3047C 5.67708 28.3568 6.44531 28.3958 7.30469 28.4219C 8.1901 28.4219 9.04948 28.4219 9.88281 28.4219C 10.7422 28.4219 11.5365 28.4219 12.2656 28.4219C 13.0208 28.3958 13.6198 28.3568 14.0625 28.3047C 14.401 28.3568 14.6484 28.513 14.8047 28.7734C 14.987 29.0339 15.0781 29.3203 15.0781 29.6328C 15.0781 29.9453 14.974 30.2448 14.7656 30.5312C 14.5573 30.7917 14.2969 30.9349 13.9844 30.9609ZM 14.0625 21.8984C 13.6198 21.8984 13.112 21.8984 12.5391 21.8984C 11.9922 21.8984 11.3802 21.8854 10.7031 21.8594L 7.1875 21.7422C 6.95312 21.7422 6.75781 21.599 6.60156 21.3125C 6.47135 21.026 6.40625 20.7266 6.40625 20.4141C 6.40625 20.0755 6.47135 19.776 6.60156 19.5156C 6.75781 19.2292 7.00521 19.0859 7.34375 19.0859C 8.59375 19.138 9.7526 19.1641 10.8203 19.1641C 11.888 19.1641 12.9688 19.1641 14.0625 19.1641C 14.375 19.2161 14.5964 19.3724 14.7266 19.6328C 14.8568 19.8932 14.9219 20.1797 14.9219 20.4922C 14.9219 20.8047 14.8438 21.1042 14.6875 21.3906C 14.5312 21.651 14.3229 21.8203 14.0625 21.8984ZM 23.5156 31.9766C 23.3854 32.6276 23.125 33.1224 22.7344 33.4609C 22.3438 33.7995 21.875 33.9688 21.3281 33.9688C 21.1198 33.9688 20.8724 33.9297 20.5859 33.8516C 20.2995 33.7995 20.026 33.6823 19.7656 33.5C 19.5312 33.3438 19.3229 33.1094 19.1406 32.7969C 18.9583 32.5104 18.8672 32.1328 18.8672 31.6641C 18.8672 30.8307 19.1016 30.2318 19.5703 29.8672C 20.0391 29.4766 20.651 29.2812 21.4062 29.2812C 22.1615 29.2812 22.7083 29.5156 23.0469 29.9844C 23.3854 30.4531 23.5547 30.987 23.5547 31.5859C 23.5547 31.638 23.5417 31.7031 23.5156 31.7812C 23.5156 31.8594 23.5156 31.9245 23.5156 31.9766ZM 44.4531 10.8047C 44.5312 10.4922 44.7266 10.2578 45.0391 10.1016C 45.3776 9.91927 45.7292 9.82812 46.0938 9.82812C 46.4323 9.82812 46.7578 9.90625 47.0703 10.0625C 47.4089 10.1927 47.6302 10.4141 47.7344 10.7266C 48.3854 14.5807 48.8151 18.0182 49.0234 21.0391C 49.2578 24.0339 49.4531 26.7161 49.6094 29.0859C 49.5833 29.3984 49.4271 29.6328 49.1406 29.7891C 48.8802 29.9453 48.5938 30.0234 48.2812 30.0234C 47.9427 30.0234 47.6302 29.9583 47.3438 29.8281C 47.0833 29.6979 46.9531 29.4766 46.9531 29.1641C 46.875 27.0547 46.7448 24.776 46.5625 22.3281C 46.3802 19.8802 46.0938 17.2109 45.7031 14.3203C 45.3125 15.4141 44.8698 16.5859 44.375 17.8359C 43.8802 19.0599 43.3724 20.2969 42.8516 21.5469C 42.3568 22.7969 41.862 24.0208 41.3672 25.2188C 40.8984 26.3906 40.4688 27.4714 40.0781 28.4609C 39.8698 28.9818 39.5703 29.3724 39.1797 29.6328C 38.8151 29.8672 38.4505 29.9844 38.0859 29.9844C 37.7734 29.9844 37.474 29.8021 37.1875 29.4375C 36.9271 29.0469 36.6536 28.5391 36.3672 27.9141C 36.1068 27.2891 35.8333 26.5859 35.5469 25.8047C 35.2865 24.9974 35 24.1771 34.6875 23.3438C 34.2448 22.1719 33.7891 20.987 33.3203 19.7891C 32.8776 18.5911 32.5 17.4453 32.1875 16.3516C 32.0573 17.3151 31.9141 18.3438 31.7578 19.4375C 31.6276 20.5052 31.4583 21.612 31.25 22.7578C 31.0677 23.8776 30.8203 25.0104 30.5078 26.1562C 30.2214 27.3021 29.8438 28.4089 29.375 29.4766C 29.2708 29.7109 29.1016 29.8802 28.8672 29.9844C 28.6589 30.0885 28.4375 30.1406 28.2031 30.1406C 27.8385 30.1406 27.487 30.0365 27.1484 29.8281C 26.8359 29.5938 26.6797 29.2812 26.6797 28.8906C 26.6797 28.7604 26.6927 28.6693 26.7188 28.6172C 27.2396 27.2109 27.6693 25.7526 28.0078 24.2422C 28.3464 22.7057 28.6328 21.1953 28.8672 19.7109C 29.1016 18.2005 29.3099 16.7552 29.4922 15.375C 29.6745 13.9688 29.8698 12.6797 30.0781 11.5078C 30.0781 11.1953 30.2344 10.9349 30.5469 10.7266C 30.8594 10.5182 31.1979 10.4141 31.5625 10.4141C 31.849 10.4141 32.1354 10.4792 32.4219 10.6094C 32.7344 10.7135 32.9427 10.9089 33.0469 11.1953C 33.5938 12.7318 34.1016 14.1641 34.5703 15.4922C 35.0651 16.7943 35.5208 18.0312 35.9375 19.2031C 36.3802 20.375 36.7969 21.5078 37.1875 22.6016C 37.5781 23.6693 37.9688 24.737 38.3594 25.8047L 41.2109 18.5781C 41.7057 17.3281 42.2135 16.0781 42.7344 14.8281C 43.2552 13.5521 43.8281 12.2109 44.4531 10.8047ZM 63.5156 18.7734C 62.9948 18.2786 62.6302 17.7578 62.4219 17.2109C 62.2396 16.638 62.1484 16.0651 62.1484 15.4922C 62.1484 14.2943 62.3568 13.2917 62.7734 12.4844C 63.2161 11.6771 63.75 11.026 64.375 10.5312C 65.026 10.0365 65.7292 9.6849 66.4844 9.47656C 67.2396 9.26823 67.9427 9.16406 68.5938 9.16406C 69.2188 9.16406 69.8307 9.25521 70.4297 9.4375C 71.0547 9.59375 71.6276 9.82812 72.1484 10.1406C 72.6953 10.4271 73.1641 10.7917 73.5547 11.2344C 73.9714 11.651 74.2969 12.1068 74.5312 12.6016C 74.5312 12.6536 74.5312 12.7057 74.5312 12.7578C 74.5573 12.7839 74.5703 12.8229 74.5703 12.875C 74.5703 13.3438 74.362 13.7083 73.9453 13.9688C 73.5547 14.2031 73.2161 14.3203 72.9297 14.3203C 72.5911 14.3203 72.3438 14.1901 72.1875 13.9297C 71.7708 13.3307 71.2109 12.875 70.5078 12.5625C 69.8307 12.25 69.1146 12.0938 68.3594 12.0938C 67.9948 12.1198 67.6302 12.2109 67.2656 12.3672C 66.901 12.4974 66.5625 12.7057 66.25 12.9922C 65.9375 13.2526 65.6771 13.5911 65.4688 14.0078C 65.2865 14.4245 65.1953 14.9193 65.1953 15.4922C 65.1953 16.2214 65.5078 16.8594 66.1328 17.4062C 66.7839 17.9271 67.5521 18.4349 68.4375 18.9297C 69.349 19.4245 70.2865 19.9453 71.25 20.4922C 72.2396 21.0391 73.0729 21.6901 73.75 22.4453C 74.3229 23.0964 74.7266 23.7995 74.9609 24.5547C 75.2214 25.3099 75.3516 26.026 75.3516 26.7031C 75.3516 27.875 75.1042 28.8255 74.6094 29.5547C 74.1406 30.2839 73.5547 30.8568 72.8516 31.2734C 72.1745 31.6901 71.4323 31.9766 70.625 32.1328C 69.8438 32.2891 69.1406 32.3672 68.5156 32.3672C 67.7344 32.3672 66.9661 32.276 66.2109 32.0938C 65.4818 31.9115 64.8307 31.6641 64.2578 31.3516C 63.6849 31.0651 63.2161 30.7526 62.8516 30.4141C 62.513 30.0495 62.3438 29.6849 62.3438 29.3203C 62.3438 28.9557 62.4479 28.5911 62.6562 28.2266C 62.8906 27.8359 63.1771 27.6406 63.5156 27.6406C 63.6198 27.6406 63.75 27.6797 63.9062 27.7578C 64.9219 28.513 65.7943 28.9948 66.5234 29.2031C 67.2526 29.4115 67.8516 29.5156 68.3203 29.5156C 69.4922 29.5156 70.4427 29.2292 71.1719 28.6562C 71.901 28.0833 72.2656 27.3021 72.2656 26.3125C 72.2656 25.7135 72.0964 25.1797 71.7578 24.7109C 71.4193 24.2422 71.0156 23.8255 70.5469 23.4609C 70.0781 23.0964 69.5833 22.7839 69.0625 22.5234C 68.5417 22.263 68.099 22.0417 67.7344 21.8594C 67.1094 21.5469 66.4453 21.1693 65.7422 20.7266C 65.0651 20.2839 64.3229 19.6328 63.5156 18.7734ZM 84.2969 18.8516C 84.401 18.7734 84.5182 18.7083 84.6484 18.6562C 84.7786 18.5781 84.9219 18.5391 85.0781 18.5391C 85.7552 18.5911 86.4583 18.7734 87.1875 19.0859C 87.9167 19.3984 88.5807 19.8411 89.1797 20.4141C 89.7786 20.987 90.2734 21.6771 90.6641 22.4844C 91.0547 23.2917 91.25 24.2161 91.25 25.2578C 91.224 26.3516 91.0286 27.3151 90.6641 28.1484C 90.3255 28.9557 89.8568 29.6328 89.2578 30.1797C 88.6849 30.7266 87.9948 31.1302 87.1875 31.3906C 86.4062 31.6771 85.5469 31.8203 84.6094 31.8203C 83.8802 31.8203 83.138 31.6771 82.3828 31.3906C 81.6276 31.1302 80.9505 30.7396 80.3516 30.2188C 79.7526 29.6719 79.2578 29.0208 78.8672 28.2656C 78.4766 27.5104 78.2812 26.638 78.2812 25.6484C 78.2812 24.763 78.4505 23.9036 78.7891 23.0703C 79.1276 22.2109 79.5443 21.4557 80.0391 20.8047C 80.5599 20.1536 81.1198 19.6328 81.7188 19.2422C 82.3438 18.8516 82.9297 18.6562 83.4766 18.6562C 83.763 18.6562 84.0365 18.7214 84.2969 18.8516ZM 84.5312 21.1562C 84.0625 21.3906 83.6328 21.638 83.2422 21.8984C 82.8776 22.1328 82.5521 22.4193 82.2656 22.7578C 82.0052 23.0964 81.7969 23.513 81.6406 24.0078C 81.5104 24.5026 81.4453 25.1146 81.4453 25.8438C 81.4453 26.4948 81.5495 27.0286 81.7578 27.4453C 81.9922 27.862 82.2786 28.2005 82.6172 28.4609C 82.9818 28.6953 83.3724 28.8646 83.7891 28.9688C 84.2318 29.0469 84.6615 29.0859 85.0781 29.0859C 85.9635 29.0859 86.7057 28.7344 87.3047 28.0312C 87.9036 27.3281 88.2031 26.4688 88.2031 25.4531C 88.2031 24.6719 88.0859 24.0339 87.8516 23.5391C 87.6432 23.0443 87.3568 22.6536 86.9922 22.3672C 86.6536 22.0547 86.263 21.8203 85.8203 21.6641C 85.3776 21.4818 84.9479 21.3125 84.5312 21.1562ZM 94.7656 10.9609C 94.5573 10.6745 94.4531 10.4141 94.4531 10.1797C 94.4531 9.78906 94.6354 9.45052 95 9.16406C 95.3646 8.8776 95.7422 8.73438 96.1328 8.73438C 96.4974 8.73438 96.849 8.91667 97.1875 9.28125C 97.5521 9.64583 97.8776 10.0885 98.1641 10.6094C 98.4505 11.1042 98.7109 11.625 98.9453 12.1719C 99.1797 12.6927 99.375 13.1224 99.5312 13.4609C 99.6094 14.5807 99.6615 15.7135 99.6875 16.8594C 99.7135 17.9792 99.7266 19.125 99.7266 20.2969C 99.7266 22.1719 99.7005 23.9818 99.6484 25.7266C 99.6224 27.4453 99.5833 29.0859 99.5312 30.6484C 99.5052 31.0391 99.375 31.3255 99.1406 31.5078C 98.9062 31.7161 98.6198 31.8203 98.2812 31.8203C 97.8906 31.8203 97.5 31.7031 97.1094 31.4688C 96.7448 31.2344 96.5625 30.9089 96.5625 30.4922C 96.5625 29.3984 96.6016 28.1615 96.6797 26.7812C 96.7839 25.375 96.8359 23.9167 96.8359 22.4062C 96.8359 20.974 96.8229 19.5547 96.7969 18.1484C 96.7708 16.7161 96.7188 15.4141 96.6406 14.2422C 96.4062 13.7474 96.1328 13.2135 95.8203 12.6406C 95.5078 12.0677 95.1562 11.5078 94.7656 10.9609ZM 104.219 26.6641C 104.219 25.7786 104.219 24.9844 104.219 24.2812C 104.245 23.5521 104.258 22.862 104.258 22.2109C 104.284 21.5339 104.297 20.8438 104.297 20.1406C 104.323 19.4115 104.349 18.5911 104.375 17.6797C 104.375 17.1589 104.557 16.7812 104.922 16.5469C 105.312 16.2865 105.716 16.1562 106.133 16.1562C 106.445 16.1562 106.719 16.2734 106.953 16.5078C 107.214 16.7161 107.344 17.0286 107.344 17.4453C 107.344 18.3568 107.331 19.1901 107.305 19.9453C 107.305 20.6745 107.292 21.4036 107.266 22.1328C 107.24 22.8359 107.214 23.5521 107.188 24.2812C 107.188 25.0104 107.188 25.8177 107.188 26.7031C 107.188 27.1719 107.266 27.5755 107.422 27.9141C 107.604 28.2526 107.826 28.5391 108.086 28.7734C 108.372 29.0078 108.672 29.1771 108.984 29.2812C 109.297 29.3854 109.596 29.4375 109.883 29.4375C 110.43 29.4375 111.042 29.2292 111.719 28.8125C 112.422 28.3698 113.021 27.8099 113.516 27.1328C 113.464 26.1693 113.424 25.2969 113.398 24.5156C 113.372 23.7083 113.359 22.9661 113.359 22.2891C 113.359 21.5859 113.359 20.8568 113.359 20.1016C 113.359 19.3464 113.411 18.6693 113.516 18.0703C 113.62 17.4453 113.802 16.9375 114.062 16.5469C 114.323 16.1562 114.727 15.9609 115.273 15.9609C 115.612 16.013 115.924 16.1562 116.211 16.3906C 116.497 16.599 116.641 16.8984 116.641 17.2891C 116.562 18.2266 116.484 19.2422 116.406 20.3359C 116.328 21.4036 116.289 22.5495 116.289 23.7734C 116.289 24.3984 116.302 25.0625 116.328 25.7656C 116.354 26.4427 116.406 27.1328 116.484 27.8359C 116.589 28.0964 116.745 28.4089 116.953 28.7734C 117.188 29.138 117.409 29.5026 117.617 29.8672C 117.852 30.2318 118.047 30.5833 118.203 30.9219C 118.359 31.2344 118.438 31.4818 118.438 31.6641C 118.438 32.0807 118.268 32.4323 117.93 32.7188C 117.591 33.0052 117.227 33.1484 116.836 33.1484C 116.602 33.1484 116.354 33.0443 116.094 32.8359C 115.859 32.6536 115.638 32.4193 115.43 32.1328C 115.221 31.8464 115.026 31.5469 114.844 31.2344C 114.688 30.9479 114.57 30.6875 114.492 30.4531C 113.815 31.026 113.034 31.4948 112.148 31.8594C 111.263 32.224 110.339 32.4062 109.375 32.4062C 108.542 32.4062 107.799 32.237 107.148 31.8984C 106.523 31.5599 105.99 31.1172 105.547 30.5703C 105.104 30.0234 104.766 29.4115 104.531 28.7344C 104.323 28.0312 104.219 27.3411 104.219 26.6641ZM 124.531 26.6641C 124.557 26.1432 124.57 25.6354 124.57 25.1406C 124.57 24.6458 124.583 24.1641 124.609 23.6953L 124.727 20.9609L 123.438 20.9609C 123.073 20.9609 122.747 20.9609 122.461 20.9609C 122.201 20.9349 121.966 20.8828 121.758 20.8047C 121.549 20.7005 121.393 20.5443 121.289 20.3359C 121.185 20.1276 121.133 19.8281 121.133 19.4375C 121.133 19.125 121.198 18.8516 121.328 18.6172C 121.484 18.3568 121.719 18.2266 122.031 18.2266C 122.344 18.2266 122.734 18.2396 123.203 18.2656C 123.698 18.2917 124.245 18.2917 124.844 18.2656C 124.844 16.8333 124.818 15.4141 124.766 14.0078C 124.714 12.6016 124.688 11.1042 124.688 9.51562C 124.688 9.07292 124.844 8.76042 125.156 8.57812C 125.469 8.36979 125.807 8.26562 126.172 8.26562C 126.719 8.26562 127.109 8.47396 127.344 8.89062C 127.578 9.28125 127.734 9.76302 127.812 10.3359C 127.891 10.9089 127.904 11.5078 127.852 12.1328C 127.826 12.7318 127.812 13.2266 127.812 13.6172C 127.812 15.2578 127.773 16.7943 127.695 18.2266C 128.945 18.2266 130.13 18.2135 131.25 18.1875C 132.396 18.1354 133.281 18.0703 133.906 17.9922C 134.219 18.0443 134.44 18.2135 134.57 18.5C 134.727 18.7604 134.805 19.0469 134.805 19.3594C 134.805 19.8021 134.701 20.1276 134.492 20.3359C 134.31 20.5443 133.945 20.7005 133.398 20.8047C 132.878 20.9089 132.148 20.9609 131.211 20.9609C 130.299 20.9609 129.102 20.9609 127.617 20.9609C 127.565 21.8203 127.526 22.7057 127.5 23.6172C 127.5 24.5286 127.5 25.4922 127.5 26.5078C 127.5 27.5234 127.682 28.3047 128.047 28.8516C 128.411 29.3724 128.88 29.6328 129.453 29.6328C 130.078 29.6328 130.638 29.4115 131.133 28.9688C 131.628 28.5 132.109 27.888 132.578 27.1328C 132.734 26.8724 132.995 26.7422 133.359 26.7422C 133.724 26.7422 134.049 26.8724 134.336 27.1328C 134.648 27.3932 134.805 27.7057 134.805 28.0703C 134.805 28.5911 134.622 29.112 134.258 29.6328C 133.893 30.1276 133.424 30.5833 132.852 31C 132.279 31.4167 131.641 31.7552 130.938 32.0156C 130.234 32.276 129.557 32.4062 128.906 32.4062C 128.099 32.4062 127.409 32.237 126.836 31.8984C 126.289 31.5599 125.846 31.1172 125.508 30.5703C 125.169 30.0234 124.922 29.4115 124.766 28.7344C 124.609 28.0312 124.531 27.3411 124.531 26.6641ZM 139.922 30.4922C 140.052 29.4766 140.143 28.4219 140.195 27.3281C 140.273 26.2344 140.312 25.1406 140.312 24.0469L 140.312 18.9297C 140.312 18.6172 140.456 18.3828 140.742 18.2266C 141.029 18.0443 141.354 17.9531 141.719 17.9531C 142.031 17.9531 142.331 18.0182 142.617 18.1484C 142.904 18.2786 143.099 18.487 143.203 18.7734C 143.229 19.5026 143.242 20.349 143.242 21.3125C 143.268 22.276 143.281 23.2786 143.281 24.3203C 143.281 25.4141 143.242 26.5208 143.164 27.6406C 143.086 28.7344 143.021 29.7891 142.969 30.8047C 142.891 31.2474 142.708 31.5729 142.422 31.7812C 142.135 32.0156 141.823 32.1328 141.484 32.1328C 141.12 32.1328 140.768 32.0156 140.43 31.7812C 140.091 31.5469 139.922 31.1823 139.922 30.6875L 139.922 30.4922ZM 143.906 12.5234C 143.776 13.1745 143.516 13.6693 143.125 14.0078C 142.734 14.3464 142.266 14.5156 141.719 14.5156C 141.51 14.5156 141.263 14.4896 140.977 14.4375C 140.69 14.3594 140.417 14.2422 140.156 14.0859C 139.922 13.9036 139.714 13.6693 139.531 13.3828C 139.349 13.0703 139.258 12.6797 139.258 12.2109C 139.258 11.3776 139.492 10.7786 139.961 10.4141C 140.43 10.0234 141.042 9.82812 141.797 9.82812C 142.552 9.82812 143.099 10.0625 143.438 10.5312C 143.776 11 143.945 11.5339 143.945 12.1328C 143.945 12.1849 143.932 12.25 143.906 12.3281C 143.906 12.4062 143.906 12.4714 143.906 12.5234ZM 153.906 18.8516C 154.01 18.7734 154.128 18.7083 154.258 18.6562C 154.388 18.5781 154.531 18.5391 154.688 18.5391C 155.365 18.5911 156.068 18.7734 156.797 19.0859C 157.526 19.3984 158.19 19.8411 158.789 20.4141C 159.388 20.987 159.883 21.6771 160.273 22.4844C 160.664 23.2917 160.859 24.2161 160.859 25.2578C 160.833 26.3516 160.638 27.3151 160.273 28.1484C 159.935 28.9557 159.466 29.6328 158.867 30.1797C 158.294 30.7266 157.604 31.1302 156.797 31.3906C 156.016 31.6771 155.156 31.8203 154.219 31.8203C 153.49 31.8203 152.747 31.6771 151.992 31.3906C 151.237 31.1302 150.56 30.7396 149.961 30.2188C 149.362 29.6719 148.867 29.0208 148.477 28.2656C 148.086 27.5104 147.891 26.638 147.891 25.6484C 147.891 24.763 148.06 23.9036 148.398 23.0703C 148.737 22.2109 149.154 21.4557 149.648 20.8047C 150.169 20.1536 150.729 19.6328 151.328 19.2422C 151.953 18.8516 152.539 18.6562 153.086 18.6562C 153.372 18.6562 153.646 18.7214 153.906 18.8516ZM 154.141 21.1562C 153.672 21.3906 153.242 21.638 152.852 21.8984C 152.487 22.1328 152.161 22.4193 151.875 22.7578C 151.615 23.0964 151.406 23.513 151.25 24.0078C 151.12 24.5026 151.055 25.1146 151.055 25.8438C 151.055 26.4948 151.159 27.0286 151.367 27.4453C 151.602 27.862 151.888 28.2005 152.227 28.4609C 152.591 28.6953 152.982 28.8646 153.398 28.9688C 153.841 29.0469 154.271 29.0859 154.688 29.0859C 155.573 29.0859 156.315 28.7344 156.914 28.0312C 157.513 27.3281 157.812 26.4688 157.812 25.4531C 157.812 24.6719 157.695 24.0339 157.461 23.5391C 157.253 23.0443 156.966 22.6536 156.602 22.3672C 156.263 22.0547 155.872 21.8203 155.43 21.6641C 154.987 21.4818 154.557 21.3125 154.141 21.1562ZM 163.75 19.5547C 163.542 19.2682 163.438 19.0078 163.438 18.7734C 163.438 18.3828 163.62 18.0443 163.984 17.7578C 164.349 17.4714 164.727 17.3281 165.117 17.3281C 165.378 17.3281 165.625 17.4193 165.859 17.6016C 166.094 17.7578 166.289 17.9531 166.445 18.1875C 166.628 18.4219 166.784 18.6823 166.914 18.9688C 167.07 19.2292 167.201 19.4635 167.305 19.6719C 167.799 19.4896 168.385 19.3333 169.062 19.2031C 169.766 19.0469 170.508 18.9688 171.289 18.9688C 171.628 18.9688 172.044 18.9948 172.539 19.0469C 173.034 19.0729 173.516 19.2031 173.984 19.4375C 174.479 19.6458 174.922 19.9974 175.312 20.4922C 175.729 20.9609 176.042 21.638 176.25 22.5234C 176.354 22.9922 176.406 23.5651 176.406 24.2422C 176.432 24.9193 176.458 25.6224 176.484 26.3516C 176.458 26.9766 176.445 27.6146 176.445 28.2656C 176.445 28.8906 176.393 29.4635 176.289 29.9844C 176.211 30.4792 176.068 30.8828 175.859 31.1953C 175.651 31.5078 175.339 31.6641 174.922 31.6641C 174.479 31.6641 174.102 31.5339 173.789 31.2734C 173.503 31.013 173.359 30.6745 173.359 30.2578C 173.359 29.5026 173.398 28.6432 173.477 27.6797C 173.555 26.7161 173.594 25.8438 173.594 25.0625C 173.594 24.3594 173.529 23.7865 173.398 23.3438C 173.294 22.901 173.138 22.5625 172.93 22.3281C 172.721 22.0677 172.448 21.8984 172.109 21.8203C 171.771 21.7422 171.393 21.7031 170.977 21.7031C 170.534 21.7031 170.078 21.7682 169.609 21.8984C 169.167 22.0026 168.724 22.1198 168.281 22.25C 168.307 22.7448 168.32 23.2526 168.32 23.7734C 168.346 24.2943 168.359 24.8411 168.359 25.4141C 168.359 26.3255 168.359 27.1719 168.359 27.9531C 168.359 28.7083 168.307 29.3724 168.203 29.9453C 168.125 30.4922 167.956 30.9219 167.695 31.2344C 167.435 31.5729 167.057 31.7422 166.562 31.7422C 166.198 31.6901 165.898 31.5599 165.664 31.3516C 165.43 31.1432 165.312 30.8698 165.312 30.5312C 165.312 29.75 165.339 28.9297 165.391 28.0703C 165.443 27.2109 165.469 26.2865 165.469 25.2969C 165.469 24.8021 165.456 24.3594 165.43 23.9688C 165.43 23.5781 165.417 23.2005 165.391 22.8359C 165.104 22.3932 164.844 21.8984 164.609 21.3516C 164.401 20.7786 164.115 20.1797 163.75 19.5547ZM 180.625 22.6797C 180.365 22.3151 180.234 21.8073 180.234 21.1562C 180.234 20.4271 180.365 19.75 180.625 19.125C 180.885 18.474 181.263 17.9141 181.758 17.4453C 182.253 16.9766 182.865 16.612 183.594 16.3516C 184.323 16.0651 185.169 15.9219 186.133 15.9219C 186.732 15.9219 187.357 16.013 188.008 16.1953C 188.659 16.3516 189.245 16.5599 189.766 16.8203C 190.312 17.0807 190.755 17.3802 191.094 17.7188C 191.432 18.0312 191.602 18.3438 191.602 18.6562C 191.602 19.099 191.432 19.4505 191.094 19.7109C 190.755 19.9714 190.443 20.1016 190.156 20.1016C 190.052 20.1016 189.922 20.0755 189.766 20.0234C 188.88 19.5807 188.099 19.2682 187.422 19.0859C 186.745 18.9036 186.146 18.8125 185.625 18.8125C 184.792 18.8125 184.167 19.0469 183.75 19.5156C 183.359 19.9583 183.164 20.5182 183.164 21.1953C 183.164 21.8203 183.385 22.3021 183.828 22.6406C 184.271 22.9531 184.818 23.2266 185.469 23.4609C 186.146 23.6693 186.875 23.8776 187.656 24.0859C 188.438 24.2682 189.154 24.5417 189.805 24.9062C 190.482 25.2708 191.042 25.7526 191.484 26.3516C 191.927 26.9245 192.148 27.7188 192.148 28.7344C 192.148 30.1146 191.641 31.1302 190.625 31.7812C 189.635 32.4583 188.281 32.7969 186.562 32.7969C 185.859 32.7969 185.13 32.7578 184.375 32.6797C 183.62 32.6016 182.93 32.4714 182.305 32.2891C 181.706 32.1328 181.211 31.9115 180.82 31.625C 180.43 31.3385 180.234 30.974 180.234 30.5312C 180.234 30.1927 180.326 29.8802 180.508 29.5938C 180.716 29.2812 180.99 29.125 181.328 29.125C 181.38 29.125 181.419 29.138 181.445 29.1641C 181.471 29.1641 181.51 29.1641 181.562 29.1641C 182.474 29.5807 183.333 29.8672 184.141 30.0234C 184.948 30.1536 185.651 30.2188 186.25 30.2188C 187.422 30.2188 188.242 30.0755 188.711 29.7891C 189.18 29.5026 189.414 29.099 189.414 28.5781C 189.414 28.1615 189.245 27.8099 188.906 27.5234C 188.594 27.2109 188.19 26.9635 187.695 26.7812C 187.227 26.5729 186.706 26.3906 186.133 26.2344C 185.586 26.0781 185.078 25.9219 184.609 25.7656C 183.88 25.5312 183.164 25.1927 182.461 24.75C 181.784 24.3073 181.172 23.6172 180.625 22.6797Z" transform="translate(45 -1)" fill="#2D9CDB"/>
</g>
<g id="house icon logo">
<g id="home-icon-silhouette">
<g id="Group">
<g id="Group_2">
<g id="Group_3">
<g id="Vector">
<path d="M 32.7738 13.5573L 27.722 8.67458L 27.722 3.03427C 27.722 2.01442 26.8669 1.18792 25.8102 1.18792C 24.7559 1.18792 23.9008 2.01442 23.9008 3.03427L 23.9008 4.98142L 20.1393 1.34575C 18.2796 -0.450718 15.0462 -0.447531 13.1907 1.349L 0.559247 13.5573C -0.186416 14.2794 -0.186416 15.4478 0.559247 16.1688C 1.30525 16.8908 2.51653 16.8908 3.26226 16.1688L 15.8925 3.96027C 16.304 3.56468 17.0292 3.56468 17.4385 3.9591L 30.0709 16.1688C 30.4455 16.5298 30.9338 16.7094 31.422 16.7094C 31.9113 16.7094 32.4005 16.5297 32.7739 16.1688C 33.5198 15.4479 33.5198 14.2794 32.7738 13.5573Z" transform="translate(0.333344 0)" fill="#2D9CDB"/>
</g>
<g id="Vector_2">
<path d="M 12.7126 0.265871C 12.3456 -0.0886238 11.7514 -0.0886238 11.3855 0.265871L 0.274863 11.0013C 0.0994486 11.1708 -7.39226e-08 11.4022 -7.39226e-08 11.6437L -7.39226e-08 19.4737C -7.39226e-08 21.3111 1.54139 22.8008 3.44235 22.8008L 8.94325 22.8008L 8.94325 14.5669L 15.1537 14.5669L 15.1537 22.8008L 20.6546 22.8008C 22.5555 22.8008 24.0969 21.3111 24.0969 19.4738L 24.0969 11.6437C 24.0969 11.4022 23.9984 11.1708 23.8221 11.0013L 12.7126 0.265871Z" transform="translate(4.95084 7.19922)" fill="#2D9CDB"/>
</g>
</g>
</g>
</g>
</g>
</g>
</g>
</g>
</svg>

