<svg width="275" height="40" viewBox="0 0 275 40" version="1.1" xmlns="http://www.w3.org/2000/svg" xmlns:xlink="http://www.w3.org/1999/xlink">
<g id="Canvas" fill="none">
<g id="Logo 1">
<g id="E.M Solutions">
<path d="M 16.7812 37.9531C 16.2188 37.9844 15.4844 38 14.5781 38C 13.6719 38.0312 12.6562 38.0469 11.5312 38.0469C 10.4062 38.0469 9.21875 38.0312 7.96875 38C 6.75 37.9688 5.5625 37.9219 4.40625 37.8594C 4.34375 37.8594 4.28125 37.875 4.21875 37.9062C 4.1875 37.9062 4.14062 37.9062 4.07812 37.9062C 3.57812 37.9062 3.15625 37.7656 2.8125 37.4844C 2.5 37.2031 2.34375 36.7969 2.34375 36.2656C 2.375 35.4531 2.40625 34.5156 2.4375 33.4531C 2.5 32.3594 2.54688 31.2031 2.57812 29.9844C 2.64062 28.7656 2.67188 27.5156 2.67188 26.2344C 2.70312 24.9219 2.71875 23.6406 2.71875 22.3906C 2.71875 20.7969 2.6875 19.3125 2.625 17.9375C 2.5625 16.5625 2.53125 15.375 2.53125 14.375C 2.53125 13.9375 2.70312 13.625 3.04688 13.4375C 3.42188 13.25 3.82812 13.1562 4.26562 13.1562C 4.79688 13.1562 5.42188 13.1875 6.14062 13.25C 6.85938 13.3125 7.625 13.3438 8.4375 13.3438C 9.125 13.3438 9.84375 13.3438 10.5938 13.3438C 11.3438 13.3438 12.0625 13.3438 12.75 13.3438C 13.4688 13.3125 14.125 13.2969 14.7188 13.2969C 15.3438 13.2969 15.875 13.2969 16.3125 13.2969C 16.6875 13.4531 16.9531 13.7031 17.1094 14.0469C 17.2969 14.3594 17.3906 14.6875 17.3906 15.0312C 17.3906 15.375 17.2812 15.7031 17.0625 16.0156C 16.8438 16.2969 16.5938 16.4844 16.3125 16.5781C 15.4375 16.6094 14.5938 16.625 13.7812 16.625C 12.9688 16.625 12.1406 16.625 11.2969 16.625C 10.4844 16.625 9.64062 16.6094 8.76562 16.5781C 7.92188 16.5469 7.03125 16.5156 6.09375 16.4844C 6.125 17.7031 6.14062 18.9844 6.14062 20.3281C 6.17188 21.6406 6.1875 22.9688 6.1875 24.3125C 6.1875 26.2812 6.15625 28.1875 6.09375 30.0312C 6.0625 31.8438 6.03125 33.4219 6 34.7656C 6.8125 34.8281 7.73438 34.875 8.76562 34.9062C 9.82812 34.9062 10.8594 34.9062 11.8594 34.9062C 12.8906 34.9062 13.8438 34.9062 14.7188 34.9062C 15.625 34.875 16.3438 34.8281 16.875 34.7656C 17.2812 34.8281 17.5781 35.0156 17.7656 35.3281C 17.9844 35.6406 18.0938 35.9844 18.0938 36.3594C 18.0938 36.7344 17.9688 37.0938 17.7188 37.4375C 17.4688 37.75 17.1562 37.9219 16.7812 37.9531ZM 16.875 27.0781C 16.3438 27.0781 15.7344 27.0781 15.0469 27.0781C 14.3906 27.0781 13.6562 27.0625 12.8438 27.0312L 8.625 26.8906C 8.34375 26.8906 8.10938 26.7188 7.92188 26.375C 7.76562 26.0312 7.6875 25.6719 7.6875 25.2969C 7.6875 24.8906 7.76562 24.5312 7.92188 24.2188C 8.10938 23.875 8.40625 23.7031 8.8125 23.7031C 10.3125 23.7656 11.7031 23.7969 12.9844 23.7969C 14.2656 23.7969 15.5625 23.7969 16.875 23.7969C 17.25 23.8594 17.5156 24.0469 17.6719 24.3594C 17.8281 24.6719 17.9062 25.0156 17.9062 25.3906C 17.9062 25.7656 17.8125 26.125 17.625 26.4688C 17.4375 26.7812 17.1875 26.9844 16.875 27.0781ZM 28.2188 39.1719C 28.0625 39.9531 27.75 40.5469 27.2812 40.9531C 26.8125 41.3594 26.25 41.5625 25.5938 41.5625C 25.3438 41.5625 25.0469 41.5156 24.7031 41.4219C 24.3594 41.3594 24.0312 41.2188 23.7188 41C 23.4375 40.8125 23.1875 40.5312 22.9688 40.1562C 22.75 39.8125 22.6406 39.3594 22.6406 38.7969C 22.6406 37.7969 22.9219 37.0781 23.4844 36.6406C 24.0469 36.1719 24.7812 35.9375 25.6875 35.9375C 26.5938 35.9375 27.25 36.2188 27.6562 36.7812C 28.0625 37.3438 28.2656 37.9844 28.2656 38.7031C 28.2656 38.7656 28.25 38.8438 28.2188 38.9375C 28.2188 39.0312 28.2188 39.1094 28.2188 39.1719ZM 53.3438 13.7656C 53.4375 13.3906 53.6719 13.1094 54.0469 12.9219C 54.4531 12.7031 54.875 12.5938 55.3125 12.5938C 55.7188 12.5938 56.1094 12.6875 56.4844 12.875C 56.8906 13.0313 57.1562 13.2969 57.2812 13.6719C 58.0625 18.2969 58.5781 22.4219 58.8281 26.0469C 59.1094 29.6406 59.3438 32.8594 59.5312 35.7031C 59.5 36.0781 59.3125 36.3594 58.9688 36.5469C 58.6562 36.7344 58.3125 36.8281 57.9375 36.8281C 57.5312 36.8281 57.1562 36.75 56.8125 36.5938C 56.5 36.4375 56.3438 36.1719 56.3438 35.7969C 56.25 33.2656 56.0938 30.5312 55.875 27.5938C 55.6562 24.6562 55.3125 21.4531 54.8438 17.9844C 54.375 19.2969 53.8438 20.7031 53.25 22.2031C 52.6562 23.6719 52.0469 25.1562 51.4219 26.6562C 50.8281 28.1562 50.2344 29.625 49.6406 31.0625C 49.0781 32.4688 48.5625 33.7656 48.0938 34.9531C 47.8438 35.5781 47.4844 36.0469 47.0156 36.3594C 46.5781 36.6406 46.1406 36.7812 45.7031 36.7812C 45.3281 36.7812 44.9688 36.5625 44.625 36.125C 44.3125 35.6562 43.9844 35.0469 43.6406 34.2969C 43.3281 33.5469 43 32.7031 42.6562 31.7656C 42.3438 30.7969 42 29.8125 41.625 28.8125C 41.0938 27.4062 40.5469 25.9844 39.9844 24.5469C 39.4531 23.1094 39 21.7344 38.625 20.4219C 38.4688 21.5781 38.2969 22.8125 38.1094 24.125C 37.9531 25.4062 37.75 26.7344 37.5 28.1094C 37.2812 29.4531 36.9844 30.8125 36.6094 32.1875C 36.2656 33.5625 35.8125 34.8906 35.25 36.1719C 35.125 36.4531 34.9219 36.6562 34.6406 36.7812C 34.3906 36.9062 34.125 36.9688 33.8438 36.9688C 33.4062 36.9688 32.9844 36.8438 32.5781 36.5938C 32.2031 36.3125 32.0156 35.9375 32.0156 35.4688C 32.0156 35.3125 32.0312 35.2031 32.0625 35.1406C 32.6875 33.4531 33.2031 31.7031 33.6094 29.8906C 34.0156 28.0469 34.3594 26.2344 34.6406 24.4531C 34.9219 22.6406 35.1719 20.9062 35.3906 19.25C 35.6094 17.5625 35.8438 16.0156 36.0938 14.6094C 36.0938 14.2344 36.2812 13.9219 36.6562 13.6719C 37.0312 13.4219 37.4375 13.2969 37.875 13.2969C 38.2188 13.2969 38.5625 13.375 38.9062 13.5312C 39.2812 13.6562 39.5312 13.8906 39.6562 14.2344C 40.3125 16.0781 40.9219 17.7969 41.4844 19.3906C 42.0781 20.9531 42.625 22.4375 43.125 23.8438C 43.6562 25.25 44.1562 26.6094 44.625 27.9219C 45.0938 29.2031 45.5625 30.4844 46.0312 31.7656L 49.4531 23.0938C 50.0469 21.5938 50.6562 20.0938 51.2812 18.5938C 51.9062 17.0625 52.5938 15.4531 53.3438 13.7656ZM 76.2188 23.3281C 75.5938 22.7344 75.1562 22.1094 74.9062 21.4531C 74.6875 20.7656 74.5781 20.0781 74.5781 19.3906C 74.5781 17.9531 74.8281 16.75 75.3281 15.7812C 75.8594 14.8125 76.5 14.0312 77.25 13.4375C 78.0312 12.8438 78.875 12.4219 79.7812 12.1719C 80.6875 11.9219 81.5312 11.7969 82.3125 11.7969C 83.0625 11.7969 83.7969 11.9063 84.5156 12.125C 85.2656 12.3125 85.9531 12.5938 86.5781 12.9688C 87.2344 13.3125 87.7969 13.75 88.2656 14.2812C 88.7656 14.7812 89.1562 15.3281 89.4375 15.9219C 89.4375 15.9844 89.4375 16.0469 89.4375 16.1094C 89.4688 16.1406 89.4844 16.1875 89.4844 16.25C 89.4844 16.8125 89.2344 17.25 88.7344 17.5625C 88.2656 17.8438 87.8594 17.9844 87.5156 17.9844C 87.1094 17.9844 86.8125 17.8281 86.625 17.5156C 86.125 16.7969 85.4531 16.25 84.6094 15.875C 83.7969 15.5 82.9375 15.3125 82.0312 15.3125C 81.5938 15.3438 81.1562 15.4531 80.7188 15.6406C 80.2812 15.7969 79.875 16.0469 79.5 16.3906C 79.125 16.7031 78.8125 17.1094 78.5625 17.6094C 78.3438 18.1094 78.2344 18.7031 78.2344 19.3906C 78.2344 20.2656 78.6094 21.0312 79.3594 21.6875C 80.1406 22.3125 81.0625 22.9219 82.125 23.5156C 83.2188 24.1094 84.3438 24.7344 85.5 25.3906C 86.6875 26.0469 87.6875 26.8281 88.5 27.7344C 89.1875 28.5156 89.6719 29.3594 89.9531 30.2656C 90.2656 31.1719 90.4219 32.0312 90.4219 32.8438C 90.4219 34.25 90.125 35.3906 89.5312 36.2656C 88.9688 37.1406 88.2656 37.8281 87.4219 38.3281C 86.6094 38.8281 85.7188 39.1719 84.75 39.3594C 83.8125 39.5469 82.9688 39.6406 82.2188 39.6406C 81.2812 39.6406 80.3594 39.5312 79.4531 39.3125C 78.5781 39.0938 77.7969 38.7969 77.1094 38.4219C 76.4219 38.0781 75.8594 37.7031 75.4219 37.2969C 75.0156 36.8594 74.8125 36.4219 74.8125 35.9844C 74.8125 35.5469 74.9375 35.1094 75.1875 34.6719C 75.4688 34.2031 75.8125 33.9688 76.2188 33.9688C 76.3438 33.9688 76.5 34.0156 76.6875 34.1094C 77.9062 35.0156 78.9531 35.5938 79.8281 35.8438C 80.7031 36.0938 81.4219 36.2188 81.9844 36.2188C 83.3906 36.2188 84.5312 35.875 85.4062 35.1875C 86.2812 34.5 86.7188 33.5625 86.7188 32.375C 86.7188 31.6562 86.5156 31.0156 86.1094 30.4531C 85.7031 29.8906 85.2188 29.3906 84.6562 28.9531C 84.0938 28.5156 83.5 28.1406 82.875 27.8281C 82.25 27.5156 81.7188 27.25 81.2812 27.0312C 80.5312 26.6562 79.7344 26.2031 78.8906 25.6719C 78.0781 25.1406 77.1875 24.3594 76.2188 23.3281ZM 101.156 23.4219C 101.281 23.3281 101.422 23.25 101.578 23.1875C 101.734 23.0938 101.906 23.0469 102.094 23.0469C 102.906 23.1094 103.75 23.3281 104.625 23.7031C 105.5 24.0781 106.297 24.6094 107.016 25.2969C 107.734 25.9844 108.328 26.8125 108.797 27.7812C 109.266 28.75 109.5 29.8594 109.5 31.1094C 109.469 32.4219 109.234 33.5781 108.797 34.5781C 108.391 35.5469 107.828 36.3594 107.109 37.0156C 106.422 37.6719 105.594 38.1562 104.625 38.4688C 103.688 38.8125 102.656 38.9844 101.531 38.9844C 100.656 38.9844 99.7656 38.8125 98.8594 38.4688C 97.9531 38.1562 97.1406 37.6875 96.4219 37.0625C 95.7031 36.4062 95.1094 35.625 94.6406 34.7188C 94.1719 33.8125 93.9375 32.7656 93.9375 31.5781C 93.9375 30.5156 94.1406 29.4844 94.5469 28.4844C 94.9531 27.4531 95.4531 26.5469 96.0469 25.7656C 96.6719 24.9844 97.3438 24.3594 98.0625 23.8906C 98.8125 23.4219 99.5156 23.1875 100.172 23.1875C 100.516 23.1875 100.844 23.2656 101.156 23.4219ZM 101.438 26.1875C 100.875 26.4688 100.359 26.7656 99.8906 27.0781C 99.4531 27.3594 99.0625 27.7031 98.7188 28.1094C 98.4062 28.5156 98.1562 29.0156 97.9688 29.6094C 97.8125 30.2031 97.7344 30.9375 97.7344 31.8125C 97.7344 32.5938 97.8594 33.2344 98.1094 33.7344C 98.3906 34.2344 98.7344 34.6406 99.1406 34.9531C 99.5781 35.2344 100.047 35.4375 100.547 35.5625C 101.078 35.6562 101.594 35.7031 102.094 35.7031C 103.156 35.7031 104.047 35.2812 104.766 34.4375C 105.484 33.5938 105.844 32.5625 105.844 31.3438C 105.844 30.4062 105.703 29.6406 105.422 29.0469C 105.172 28.4531 104.828 27.9844 104.391 27.6406C 103.984 27.2656 103.516 26.9844 102.984 26.7969C 102.453 26.5781 101.938 26.375 101.438 26.1875ZM 113.719 13.9531C 113.469 13.6094 113.344 13.2969 113.344 13.0156C 113.344 12.5469 113.562 12.1406 114 11.7969C 114.438 11.4531 114.891 11.2812 115.359 11.2812C 115.797 11.2812 116.219 11.5 116.625 11.9375C 117.062 12.375 117.453 12.9062 117.797 13.5312C 118.141 14.125 118.453 14.75 118.734 15.4062C 119.016 16.0312 119.25 16.5469 119.438 16.9531C 119.531 18.2969 119.594 19.6562 119.625 21.0312C 119.656 22.375 119.672 23.75 119.672 25.1562C 119.672 27.4062 119.641 29.5781 119.578 31.6719C 119.547 33.7344 119.5 35.7031 119.438 37.5781C 119.406 38.0469 119.25 38.3906 118.969 38.6094C 118.688 38.8594 118.344 38.9844 117.938 38.9844C 117.469 38.9844 117 38.8438 116.531 38.5625C 116.094 38.2812 115.875 37.8906 115.875 37.3906C 115.875 36.0781 115.922 34.5938 116.016 32.9375C 116.141 31.25 116.203 29.5 116.203 27.6875C 116.203 25.9688 116.188 24.2656 116.156 22.5781C 116.125 20.8594 116.062 19.2969 115.969 17.8906C 115.688 17.2969 115.359 16.6562 114.984 15.9688C 114.609 15.2812 114.188 14.6094 113.719 13.9531ZM 125.062 32.7969C 125.062 31.7344 125.062 30.7812 125.062 29.9375C 125.094 29.0625 125.109 28.2344 125.109 27.4531C 125.141 26.6406 125.156 25.8125 125.156 24.9688C 125.188 24.0938 125.219 23.1094 125.25 22.0156C 125.25 21.3906 125.469 20.9375 125.906 20.6562C 126.375 20.3438 126.859 20.1875 127.359 20.1875C 127.734 20.1875 128.062 20.3281 128.344 20.6094C 128.656 20.8594 128.812 21.2344 128.812 21.7344C 128.812 22.8281 128.797 23.8281 128.766 24.7344C 128.766 25.6094 128.75 26.4844 128.719 27.3594C 128.688 28.2031 128.656 29.0625 128.625 29.9375C 128.625 30.8125 128.625 31.7812 128.625 32.8438C 128.625 33.4062 128.719 33.8906 128.906 34.2969C 129.125 34.7031 129.391 35.0469 129.703 35.3281C 130.047 35.6094 130.406 35.8125 130.781 35.9375C 131.156 36.0625 131.516 36.125 131.859 36.125C 132.516 36.125 133.25 35.875 134.062 35.375C 134.906 34.8438 135.625 34.1719 136.219 33.3594C 136.156 32.2031 136.109 31.1562 136.078 30.2188C 136.047 29.25 136.031 28.3594 136.031 27.5469C 136.031 26.7031 136.031 25.8281 136.031 24.9219C 136.031 24.0156 136.094 23.2031 136.219 22.4844C 136.344 21.7344 136.562 21.125 136.875 20.6562C 137.188 20.1875 137.672 19.9531 138.328 19.9531C 138.734 20.0156 139.109 20.1875 139.453 20.4688C 139.797 20.7188 139.969 21.0781 139.969 21.5469C 139.875 22.6719 139.781 23.8906 139.688 25.2031C 139.594 26.4844 139.547 27.8594 139.547 29.3281C 139.547 30.0781 139.562 30.875 139.594 31.7188C 139.625 32.5312 139.688 33.3594 139.781 34.2031C 139.906 34.5156 140.094 34.8906 140.344 35.3281C 140.625 35.7656 140.891 36.2031 141.141 36.6406C 141.422 37.0781 141.656 37.5 141.844 37.9062C 142.031 38.2812 142.125 38.5781 142.125 38.7969C 142.125 39.2969 141.922 39.7188 141.516 40.0625C 141.109 40.4062 140.672 40.5781 140.203 40.5781C 139.922 40.5781 139.625 40.4531 139.312 40.2031C 139.031 39.9844 138.766 39.7031 138.516 39.3594C 138.266 39.0156 138.031 38.6562 137.812 38.2812C 137.625 37.9375 137.484 37.625 137.391 37.3438C 136.578 38.0312 135.641 38.5938 134.578 39.0312C 133.516 39.4688 132.406 39.6875 131.25 39.6875C 130.25 39.6875 129.359 39.4844 128.578 39.0781C 127.828 38.6719 127.188 38.1406 126.656 37.4844C 126.125 36.8281 125.719 36.0938 125.438 35.2812C 125.188 34.4375 125.062 33.6094 125.062 32.7969ZM 149.438 32.7969C 149.469 32.1719 149.484 31.5625 149.484 30.9688C 149.484 30.375 149.5 29.7969 149.531 29.2344L 149.672 25.9531L 148.125 25.9531C 147.688 25.9531 147.297 25.9531 146.953 25.9531C 146.641 25.9219 146.359 25.8594 146.109 25.7656C 145.859 25.6406 145.672 25.4531 145.547 25.2031C 145.422 24.9531 145.359 24.5938 145.359 24.125C 145.359 23.75 145.438 23.4219 145.594 23.1406C 145.781 22.8281 146.062 22.6719 146.438 22.6719C 146.812 22.6719 147.281 22.6875 147.844 22.7188C 148.438 22.75 149.094 22.75 149.812 22.7188C 149.812 21 149.781 19.2969 149.719 17.6094C 149.656 15.9219 149.625 14.125 149.625 12.2188C 149.625 11.6875 149.812 11.3125 150.188 11.0938C 150.562 10.8437 150.969 10.7188 151.406 10.7188C 152.062 10.7188 152.531 10.9688 152.812 11.4688C 153.094 11.9375 153.281 12.5156 153.375 13.2031C 153.469 13.8906 153.484 14.6094 153.422 15.3594C 153.391 16.0781 153.375 16.6719 153.375 17.1406C 153.375 19.1094 153.328 20.9531 153.234 22.6719C 154.734 22.6719 156.156 22.6562 157.5 22.625C 158.875 22.5625 159.938 22.4844 160.688 22.3906C 161.062 22.4531 161.328 22.6562 161.484 23C 161.672 23.3125 161.766 23.6562 161.766 24.0312C 161.766 24.5625 161.641 24.9531 161.391 25.2031C 161.172 25.4531 160.734 25.6406 160.078 25.7656C 159.453 25.8906 158.578 25.9531 157.453 25.9531C 156.359 25.9531 154.922 25.9531 153.141 25.9531C 153.078 26.9844 153.031 28.0469 153 29.1406C 153 30.2344 153 31.3906 153 32.6094C 153 33.8281 153.219 34.7656 153.656 35.4219C 154.094 36.0469 154.656 36.3594 155.344 36.3594C 156.094 36.3594 156.766 36.0938 157.359 35.5625C 157.953 35 158.531 34.2656 159.094 33.3594C 159.281 33.0469 159.594 32.8906 160.031 32.8906C 160.469 32.8906 160.859 33.0469 161.203 33.3594C 161.578 33.6719 161.766 34.0469 161.766 34.4844C 161.766 35.1094 161.547 35.7344 161.109 36.3594C 160.672 36.9531 160.109 37.5 159.422 38C 158.734 38.5 157.969 38.9062 157.125 39.2188C 156.281 39.5312 155.469 39.6875 154.688 39.6875C 153.719 39.6875 152.891 39.4844 152.203 39.0781C 151.547 38.6719 151.016 38.1406 150.609 37.4844C 150.203 36.8281 149.906 36.0938 149.719 35.2812C 149.531 34.4375 149.438 33.6094 149.438 32.7969ZM 167.906 37.3906C 168.062 36.1719 168.172 34.9062 168.234 33.5938C 168.328 32.2812 168.375 30.9688 168.375 29.6562L 168.375 23.5156C 168.375 23.1406 168.547 22.8594 168.891 22.6719C 169.234 22.4531 169.625 22.3438 170.062 22.3438C 170.438 22.3438 170.797 22.4219 171.141 22.5781C 171.484 22.7344 171.719 22.9844 171.844 23.3281C 171.875 24.2031 171.891 25.2188 171.891 26.375C 171.922 27.5312 171.938 28.7344 171.938 29.9844C 171.938 31.2969 171.891 32.625 171.797 33.9688C 171.703 35.2812 171.625 36.5469 171.562 37.7656C 171.469 38.2969 171.25 38.6875 170.906 38.9375C 170.562 39.2188 170.188 39.3594 169.781 39.3594C 169.344 39.3594 168.922 39.2188 168.516 38.9375C 168.109 38.6562 167.906 38.2188 167.906 37.625L 167.906 37.3906ZM 172.688 15.8281C 172.531 16.6094 172.219 17.2031 171.75 17.6094C 171.281 18.0156 170.719 18.2188 170.062 18.2188C 169.812 18.2188 169.516 18.1875 169.172 18.125C 168.828 18.0312 168.5 17.8906 168.188 17.7031C 167.906 17.4844 167.656 17.2031 167.438 16.8594C 167.219 16.4844 167.109 16.0156 167.109 15.4531C 167.109 14.4531 167.391 13.7344 167.953 13.2969C 168.516 12.8281 169.25 12.5938 170.156 12.5938C 171.062 12.5938 171.719 12.875 172.125 13.4375C 172.531 14 172.734 14.6406 172.734 15.3594C 172.734 15.4219 172.719 15.5 172.688 15.5938C 172.688 15.6875 172.688 15.7656 172.688 15.8281ZM 184.688 23.4219C 184.812 23.3281 184.953 23.25 185.109 23.1875C 185.266 23.0938 185.438 23.0469 185.625 23.0469C 186.438 23.1094 187.281 23.3281 188.156 23.7031C 189.031 24.0781 189.828 24.6094 190.547 25.2969C 191.266 25.9844 191.859 26.8125 192.328 27.7812C 192.797 28.75 193.031 29.8594 193.031 31.1094C 193 32.4219 192.766 33.5781 192.328 34.5781C 191.922 35.5469 191.359 36.3594 190.641 37.0156C 189.953 37.6719 189.125 38.1562 188.156 38.4688C 187.219 38.8125 186.188 38.9844 185.062 38.9844C 184.188 38.9844 183.297 38.8125 182.391 38.4688C 181.484 38.1562 180.672 37.6875 179.953 37.0625C 179.234 36.4062 178.641 35.625 178.172 34.7188C 177.703 33.8125 177.469 32.7656 177.469 31.5781C 177.469 30.5156 177.672 29.4844 178.078 28.4844C 178.484 27.4531 178.984 26.5469 179.578 25.7656C 180.203 24.9844 180.875 24.3594 181.594 23.8906C 182.344 23.4219 183.047 23.1875 183.703 23.1875C 184.047 23.1875 184.375 23.2656 184.688 23.4219ZM 184.969 26.1875C 184.406 26.4688 183.891 26.7656 183.422 27.0781C 182.984 27.3594 182.594 27.7031 182.25 28.1094C 181.938 28.5156 181.688 29.0156 181.5 29.6094C 181.344 30.2031 181.266 30.9375 181.266 31.8125C 181.266 32.5938 181.391 33.2344 181.641 33.7344C 181.922 34.2344 182.266 34.6406 182.672 34.9531C 183.109 35.2344 183.578 35.4375 184.078 35.5625C 184.609 35.6562 185.125 35.7031 185.625 35.7031C 186.688 35.7031 187.578 35.2812 188.297 34.4375C 189.016 33.5938 189.375 32.5625 189.375 31.3438C 189.375 30.4062 189.234 29.6406 188.953 29.0469C 188.703 28.4531 188.359 27.9844 187.922 27.6406C 187.516 27.2656 187.047 26.9844 186.516 26.7969C 185.984 26.5781 185.469 26.375 184.969 26.1875ZM 196.5 24.2656C 196.25 23.9219 196.125 23.6094 196.125 23.3281C 196.125 22.8594 196.344 22.4531 196.781 22.1094C 197.219 21.7656 197.672 21.5938 198.141 21.5938C 198.453 21.5938 198.75 21.7031 199.031 21.9219C 199.312 22.1094 199.547 22.3438 199.734 22.625C 199.953 22.9062 200.141 23.2188 200.297 23.5625C 200.484 23.875 200.641 24.1562 200.766 24.4062C 201.359 24.1875 202.062 24 202.875 23.8438C 203.719 23.6562 204.609 23.5625 205.547 23.5625C 205.953 23.5625 206.453 23.5938 207.047 23.6562C 207.641 23.6875 208.219 23.8438 208.781 24.125C 209.375 24.375 209.906 24.7969 210.375 25.3906C 210.875 25.9531 211.25 26.7656 211.5 27.8281C 211.625 28.3906 211.688 29.0781 211.688 29.8906C 211.719 30.7031 211.75 31.5469 211.781 32.4219C 211.75 33.1719 211.734 33.9375 211.734 34.7188C 211.734 35.4688 211.672 36.1562 211.547 36.7812C 211.453 37.375 211.281 37.8594 211.031 38.2344C 210.781 38.6094 210.406 38.7969 209.906 38.7969C 209.375 38.7969 208.922 38.6406 208.547 38.3281C 208.203 38.0156 208.031 37.6094 208.031 37.1094C 208.031 36.2031 208.078 35.1719 208.172 34.0156C 208.266 32.8594 208.312 31.8125 208.312 30.875C 208.312 30.0312 208.234 29.3438 208.078 28.8125C 207.953 28.2812 207.766 27.875 207.516 27.5938C 207.266 27.2812 206.938 27.0781 206.531 26.9844C 206.125 26.8906 205.672 26.8438 205.172 26.8438C 204.641 26.8438 204.094 26.9219 203.531 27.0781C 203 27.2031 202.469 27.3438 201.938 27.5C 201.969 28.0938 201.984 28.7031 201.984 29.3281C 202.016 29.9531 202.031 30.6094 202.031 31.2969C 202.031 32.3906 202.031 33.4062 202.031 34.3438C 202.031 35.25 201.969 36.0469 201.844 36.7344C 201.75 37.3906 201.547 37.9062 201.234 38.2812C 200.922 38.6875 200.469 38.8906 199.875 38.8906C 199.438 38.8281 199.078 38.6719 198.797 38.4219C 198.516 38.1719 198.375 37.8438 198.375 37.4375C 198.375 36.5 198.406 35.5156 198.469 34.4844C 198.531 33.4531 198.562 32.3438 198.562 31.1562C 198.562 30.5625 198.547 30.0312 198.516 29.5625C 198.516 29.0938 198.5 28.6406 198.469 28.2031C 198.125 27.6719 197.812 27.0781 197.531 26.4219C 197.281 25.7344 196.938 25.0156 196.5 24.2656ZM 216.75 28.0156C 216.438 27.5781 216.281 26.9688 216.281 26.1875C 216.281 25.3125 216.438 24.5 216.75 23.75C 217.062 22.9688 217.516 22.2969 218.109 21.7344C 218.703 21.1719 219.438 20.7344 220.312 20.4219C 221.188 20.0781 222.203 19.9062 223.359 19.9062C 224.078 19.9062 224.828 20.0156 225.609 20.2344C 226.391 20.4219 227.094 20.6719 227.719 20.9844C 228.375 21.2969 228.906 21.6562 229.312 22.0625C 229.719 22.4375 229.922 22.8125 229.922 23.1875C 229.922 23.7188 229.719 24.1406 229.312 24.4531C 228.906 24.7656 228.531 24.9219 228.188 24.9219C 228.062 24.9219 227.906 24.8906 227.719 24.8281C 226.656 24.2969 225.719 23.9219 224.906 23.7031C 224.094 23.4844 223.375 23.375 222.75 23.375C 221.75 23.375 221 23.6562 220.5 24.2188C 220.031 24.75 219.797 25.4219 219.797 26.2344C 219.797 26.9844 220.062 27.5625 220.594 27.9688C 221.125 28.3438 221.781 28.6719 222.562 28.9531C 223.375 29.2031 224.25 29.4531 225.188 29.7031C 226.125 29.9219 226.984 30.25 227.766 30.6875C 228.578 31.125 229.25 31.7031 229.781 32.4219C 230.312 33.1094 230.578 34.0625 230.578 35.2812C 230.578 36.9375 229.969 38.1562 228.75 38.9375C 227.562 39.75 225.938 40.1562 223.875 40.1562C 223.031 40.1562 222.156 40.1094 221.25 40.0156C 220.344 39.9219 219.516 39.7656 218.766 39.5469C 218.047 39.3594 217.453 39.0938 216.984 38.75C 216.516 38.4062 216.281 37.9688 216.281 37.4375C 216.281 37.0312 216.391 36.6562 216.609 36.3125C 216.859 35.9375 217.188 35.75 217.594 35.75C 217.656 35.75 217.703 35.7656 217.734 35.7969C 217.766 35.7969 217.812 35.7969 217.875 35.7969C 218.969 36.2969 220 36.6406 220.969 36.8281C 221.938 36.9844 222.781 37.0625 223.5 37.0625C 224.906 37.0625 225.891 36.8906 226.453 36.5469C 227.016 36.2031 227.297 35.7188 227.297 35.0938C 227.297 34.5938 227.094 34.1719 226.688 33.8281C 226.312 33.4531 225.828 33.1562 225.234 32.9375C 224.672 32.6875 224.047 32.4688 223.359 32.2812C 222.703 32.0938 222.094 31.9062 221.531 31.7188C 220.656 31.4375 219.797 31.0312 218.953 30.5C 218.141 29.9688 217.406 29.1406 216.75 28.0156Z" transform="translate(44 -2)" fill="#F2994A"/>
</g>
<g id="house icon logo">
<g id="home-icon-silhouette">
<g id="Group">
<g id="Group_2">
<g id="Group_3">
<g id="Vector">
<path d="M 39.3286 16.2687L 33.2664 10.4095L 33.2664 3.64112C 33.2664 2.41731 32.2403 1.4255 30.9722 1.4255C 29.7071 1.4255 28.681 2.41731 28.681 3.64112L 28.681 5.97771L 24.1672 1.6149C 21.9355 -0.540862 18.0554 -0.537038 15.8289 1.61881L 0.671097 16.2687C -0.223699 17.1353 -0.223699 18.5374 0.671097 19.4026C 1.5663 20.2689 3.01984 20.2689 3.91471 19.4026L 19.071 4.75233C 19.5648 4.27761 20.435 4.27761 20.9262 4.75092L 36.0851 19.4026C 36.5346 19.8358 37.1206 20.0513 37.7065 20.0513C 38.2935 20.0513 38.8805 19.8356 39.3287 19.4026C 40.2238 18.5375 40.2238 17.1353 39.3286 16.2687Z" fill="#F2994A"/>
</g>
<g id="Vector_2">
<path d="M 15.2551 0.319045C 14.8148 -0.106349 14.1017 -0.106349 13.6626 0.319045L 0.329836 13.2016C 0.119338 13.405 -8.87071e-08 13.6826 -8.87071e-08 13.9724L -8.87071e-08 23.3684C -8.87071e-08 25.5733 1.84967 27.3609 4.13082 27.3609L 10.7319 27.3609L 10.7319 17.4803L 18.1844 17.4803L 18.1844 27.3609L 24.7856 27.3609C 27.0666 27.3609 28.9163 25.5733 28.9163 23.3685L 28.9163 13.9724C 28.9163 13.6826 28.798 13.405 28.5865 13.2016L 15.2551 0.319045Z" transform="translate(5.54102 8.63904)" fill="#F2994A"/>
</g>
</g>
</g>
</g>
</g>
</g>
</g>
</g>
</svg>

