<svg width="40" height="56" viewBox="0 0 40 56" version="1.1" xmlns="http://www.w3.org/2000/svg" xmlns:xlink="http://www.w3.org/1999/xlink">
<g id="Canvas" fill="none">
<g id="Group">
<g id="Group_2">
<g id="Vector">
<path d="M 25.4957 50.3022C 25.4957 49.5262 25.32 48.791 24.9697 48.0969C 24.619 47.4024 24.1177 46.8001 23.4666 46.2893C 22.8153 45.7787 22.0638 45.3703 21.212 45.0642C 20.3603 44.7576 19.4586 44.6044 18.5066 44.6044C 17.5547 44.6044 16.6529 44.7576 15.8011 45.0642C 14.9494 45.3706 14.2104 45.779 13.5841 46.2893C 12.9579 46.8001 12.4694 47.4023 12.1186 48.0969C 11.7679 48.7913 11.5926 49.5262 11.5926 50.3022C 11.5926 51.0784 11.7679 51.8138 12.1186 52.5078C 12.4694 53.2024 12.9579 53.8046 13.5841 54.3153C 14.2104 54.826 14.9494 55.2345 15.8011 55.5405C 16.6529 55.8471 17.5547 56 18.5066 56C 19.4586 56 20.3604 55.8471 21.212 55.5405C 22.064 55.2342 22.8157 54.8257 23.4666 54.3153C 24.1179 53.8046 24.619 53.2025 24.9697 52.5078C 25.3203 51.8135 25.4957 51.0783 25.4957 50.3022ZM 19.0326 42.0925L 18.4314 42.0925C 16.8281 41.9291 15.5129 41.3369 14.4858 40.3158C 13.4588 39.295 13.0204 38.1306 13.1707 36.8236C 13.4713 34.5774 14.1602 32.4022 15.2374 30.2987C 16.3146 28.1951 17.7049 26.3265 19.4084 24.6927C 19.9595 24.1209 20.5606 23.6002 21.2119 23.1304C 21.8636 22.6607 22.5146 22.2012 23.1659 21.7519C 24.8192 20.6083 26.0847 19.5872 26.9611 18.6886C 27.8375 17.7901 28.2763 16.6873 28.2763 15.3802C 28.2763 14.2366 27.9882 13.2972 27.412 12.562C 26.8362 11.8268 26.1345 11.2448 25.3077 10.8159C 24.4809 10.387 23.6167 10.0807 22.715 9.89689C 21.8131 9.71309 21.0115 9.62119 20.3101 9.62119L 20.1598 9.62119C 18.7569 9.62119 17.6046 9.77436 16.7027 10.0807C 15.8009 10.387 15.0368 10.8159 14.4106 11.3673C 13.7843 11.9187 13.2582 12.5824 12.8324 13.3584C 12.4065 14.1345 11.9681 14.9718 11.5172 15.8704C 10.916 17.1365 10.1895 18.0249 9.33775 18.5355C 8.48601 19.046 7.63428 19.3421 6.78255 19.4238C 5.83061 19.5872 4.85362 19.5259 3.85158 19.24C 2.84955 18.9133 2.04792 18.4436 1.44669 17.8309C 0.895571 17.2999 0.469706 16.6158 0.169094 15.7785C -0.131517 14.9412 -0.0313137 13.9098 0.469706 12.6845C 0.770317 11.9085 1.29639 10.7955 2.04792 9.34549C 2.79945 7.89552 3.93926 6.47618 5.46737 5.08747C 6.99548 3.69877 8.96198 2.49386 11.3669 1.47275C 13.7718 0.451644 16.7779 -0.0384879 20.3851 0.0023564C 22.79 0.0432007 25.1573 0.400588 27.487 1.07452C 29.8168 1.74845 31.9085 2.73892 33.7623 4.04594C 35.6165 5.35296 37.1191 6.9561 38.2719 8.85536C 39.4242 10.7546 40 12.9296 40 15.3802C 40 17.1774 39.6998 18.7703 39.0982 20.159C 38.4969 21.5477 37.7329 22.7935 36.806 23.8963C 35.8791 24.9991 34.8771 25.9589 33.8 26.7758C 32.7228 27.5927 31.7333 28.3279 30.8315 28.9815C 30.3305 29.3491 29.8545 29.6861 29.4032 29.9924C 28.9523 30.299 28.6019 30.5951 28.3514 30.8808C 27.4496 31.7796 26.6855 32.8311 26.0593 34.0363C 25.4326 35.2412 25.0447 36.4971 24.8944 37.8042C 24.7441 39.0703 24.1053 40.1017 22.9782 40.8981C 21.8507 41.6943 20.5356 42.0925 19.0326 42.0925Z" fill="#333333"/>
</g>
</g>
</g>
</g>
</svg>

