<svg width="56" height="56" viewBox="0 0 56 56" version="1.1" xmlns="http://www.w3.org/2000/svg" xmlns:xlink="http://www.w3.org/1999/xlink">
<g id="Canvas" fill="none">
<g id="money-transfer icon">
<g id="Vector">
<path d="M 25.2903 12.6452C 25.2903 5.67226 19.6181 0 12.6452 0C 5.67226 0 0 5.67226 0 12.6452C 0 19.6181 5.67226 25.2903 12.6452 25.2903C 19.6181 25.2903 25.2903 19.6181 25.2903 12.6452ZM 12.6452 23.4839C 6.66852 23.4839 1.80645 18.6218 1.80645 12.6452C 1.80645 6.66852 6.66852 1.80645 12.6452 1.80645C 18.6218 1.80645 23.4839 6.66852 23.4839 12.6452C 23.4839 18.6218 18.6218 23.4839 12.6452 23.4839Z" transform="translate(15.3549 14.4516)" fill="#333333"/>
</g>
<g id="Vector_2">
<path d="M 5.41935 1.85252L 5.41935 0L 3.6129 0L 3.6129 1.85252C 1.58606 2.08013 0 3.78452 0 5.87097C 0 8.11187 1.82361 9.93548 4.06452 9.93548L 4.96774 9.93548C 6.21329 9.93548 7.22581 10.948 7.22581 12.1935C 7.22581 13.4391 6.21329 14.4516 4.96774 14.4516L 4.06452 14.4516C 2.81897 14.4516 1.80645 13.4391 1.80645 12.1935L 1.80645 11.7419L 0 11.7419L 0 12.1935C 0 14.28 1.58606 15.9844 3.6129 16.212L 3.6129 18.0645L 5.41935 18.0645L 5.41935 16.212C 7.44619 15.9844 9.03226 14.28 9.03226 12.1935C 9.03226 9.95265 7.20864 8.12903 4.96774 8.12903L 4.06452 8.12903C 2.81897 8.12903 1.80645 7.11652 1.80645 5.87097C 1.80645 4.62542 2.81897 3.6129 4.06452 3.6129L 4.96774 3.6129C 6.21329 3.6129 7.22581 4.62542 7.22581 5.87097L 7.22581 6.32258L 9.03226 6.32258L 9.03226 5.87097C 9.03226 3.78452 7.44619 2.08013 5.41935 1.85252Z" transform="translate(23.4839 18.0645)" fill="#006ED1"/>
</g>
<g id="Vector_3">
<path d="M 1.80645 7.22581L 25.2903 7.22581L 25.2903 12.6452L 27.0968 12.6452L 27.0968 4.51613C 27.0968 2.02594 25.0708 0 22.5806 0L 4.51613 0C 2.02594 0 0 2.02594 0 4.51613L 0 39.7419L 1.80645 39.7419L 1.80645 7.22581ZM 1.80645 4.51613C 1.80645 3.02219 3.02219 1.80645 4.51613 1.80645L 22.5806 1.80645C 24.0746 1.80645 25.2903 3.02219 25.2903 4.51613L 25.2903 5.41935L 1.80645 5.41935L 1.80645 4.51613Z" fill="#333333"/>
</g>
<g id="Vector_4">
<path d="M 9.03226 0L 0 0L 0 1.80645L 9.03226 1.80645L 9.03226 0Z" transform="translate(9.03223 45.1613)" fill="#333333"/>
</g>
<g id="Vector_5">
<path d="M 0 4.51613C 0 7.00632 2.02594 9.03226 4.51613 9.03226L 22.5806 9.03226C 25.0708 9.03226 27.0968 7.00632 27.0968 4.51613L 27.0968 0L 0 0L 0 4.51613ZM 1.80645 1.80645L 25.2903 1.80645L 25.2903 4.51613C 25.2903 6.01006 24.0746 7.22581 22.5806 7.22581L 4.51613 7.22581C 3.02219 7.22581 1.80645 6.01006 1.80645 4.51613L 1.80645 1.80645Z" transform="translate(0 41.5484)" fill="#333333"/>
</g>
<g id="Vector_6">
<path d="M 22.5806 0L 4.51613 0C 2.02594 0 0 2.02594 0 4.51613L 0 7.22581L 0.903226 7.22581L 1.80645 7.22581L 25.2903 7.22581L 25.2903 39.7419L 27.0968 39.7419L 27.0968 4.51613C 27.0968 2.02594 25.0708 0 22.5806 0ZM 25.2903 5.41935L 1.80645 5.41935L 1.80645 4.51613C 1.80645 3.02219 3.02219 1.80645 4.51613 1.80645L 22.5806 1.80645C 24.0746 1.80645 25.2903 3.02219 25.2903 4.51613L 25.2903 5.41935Z" transform="translate(28.9032 5.41937)" fill="#333333"/>
</g>
<g id="Vector_7">
<path d="M 9.03226 0L 0 0L 0 1.80645L 9.03226 1.80645L 9.03226 0Z" transform="translate(37.9354 50.5806)" fill="#333333"/>
</g>
<g id="Vector_8">
<path d="M 1.80645 0L 0 0L 0 9.93548C 0 12.4257 2.02594 14.4516 4.51613 14.4516L 22.5806 14.4516C 25.0708 14.4516 27.0968 12.4257 27.0968 9.93548L 27.0968 5.41935L 1.80645 5.41935L 1.80645 0ZM 25.2903 7.22581L 25.2903 9.93548C 25.2903 11.4294 24.0746 12.6452 22.5806 12.6452L 4.51613 12.6452C 3.02219 12.6452 1.80645 11.4294 1.80645 9.93548L 1.80645 7.22581L 25.2903 7.22581Z" transform="translate(28.9032 41.5484)" fill="#333333"/>
</g>
<g id="Vector_9">
<path d="M 0 11.7419L 0 13.5484L 2.70968 13.5484L 2.70968 19.871L 10.1613 9.93548L 2.70968 0L 2.70968 6.32258L 0 6.32258L 0 8.12903L 4.51613 8.12903L 4.51613 5.41935L 7.90323 9.93548L 4.51613 14.4516L 4.51613 11.7419L 0 11.7419Z" transform="translate(42.4517 17.1613)" fill="#333333"/>
</g>
<g id="Vector_10">
<path d="M 10.1613 8.12903L 10.1613 6.32258L 7.45161 6.32258L 7.45161 0L 0 9.93548L 7.45161 19.871L 7.45161 13.5484L 10.1613 13.5484L 10.1613 11.7419L 5.64516 11.7419L 5.64516 14.4516L 2.25806 9.93548L 5.64516 5.41935L 5.64516 8.12903L 10.1613 8.12903Z" transform="translate(3.38708 17.1613)" fill="#333333"/>
</g>
<g id="Vector_11">
<path d="M 1.80645 0L 0 0L 0 1.80645L 1.80645 1.80645L 1.80645 0Z" transform="translate(43.3549 41.5484)" fill="#333333"/>
</g>
<g id="Vector_12">
<path d="M 1.80645 0L 0 0L 0 1.80645L 1.80645 1.80645L 1.80645 0Z" transform="translate(39.7419 41.5484)" fill="#333333"/>
</g>
<g id="Vector_13">
<path d="M 1.80645 0L 0 0L 0 1.80645L 1.80645 1.80645L 1.80645 0Z" transform="translate(36.129 41.5484)" fill="#333333"/>
</g>
<g id="Vector_14">
<path d="M 1.80645 0L 0 0L 0 1.80645L 1.80645 1.80645L 1.80645 0Z" transform="translate(18.0646 10.8387)" fill="#333333"/>
</g>
<g id="Vector_15">
<path d="M 1.80645 0L 0 0L 0 1.80645L 1.80645 1.80645L 1.80645 0Z" transform="translate(14.4517 10.8387)" fill="#333333"/>
</g>
</g>
</g>
</svg>

