<svg width="56" height="56" viewBox="0 0 56 56" version="1.1" xmlns="http://www.w3.org/2000/svg" xmlns:xlink="http://www.w3.org/1999/xlink">
<g id="Canvas" fill="none">
<g id="two-hands-graving-dollar-bills">
<g id="Group">
<g id="Vector">
<path d="M 42.4177 28.9915C 41.5387 23.7176 40.6668 18.4493 39.7854 13.1793C 29.7389 6.71236 23.6384 23.9533 13.5887 17.4808C 14.4685 22.7516 15.3412 28.0231 16.221 33.2922C 26.2667 39.7655 32.3688 22.5206 42.4177 28.9915ZM 27.0283 17.3919C 30.0146 15.2614 32.9825 16.8545 33.5299 20.144C 34.0565 23.308 31.9564 26.9523 28.9757 29.0804C 25.9886 31.2109 23.0231 29.6162 22.4741 26.3291C 21.9451 23.1643 24.0452 19.5248 27.0283 17.3919ZM 23.3755 42.5057C 26.2443 46.1952 25.7409 52.4391 26.7694 55.9984L 18.5336 55.9984C 13.1891 50.3491 3.68123 44.6751 0.647774 38.12C -0.894524 34.7885 0.530304 30.9172 2.68553 27.3412C 3.55017 25.9061 4.72328 25.8886 5.29864 28.2946C 5.80448 30.4179 3.98649 34.1852 5.36257 36.5991C 6.4278 38.4677 10.0326 38.7233 12.1775 40.1426C 10.095 37.6731 6.56285 34.3789 8.78759 32.735C 11.356 30.8355 13.7014 35.2926 15.9101 37.1119C 18.4258 39.1813 21.7781 40.445 23.3755 42.5057ZM 53.3169 27.3428C 55.4729 30.9204 56.8937 34.7917 55.3514 38.1216C 52.318 44.6727 42.814 50.3514 37.4655 56L 29.2314 56C 30.2647 52.4407 29.7557 46.1968 32.6237 42.5073C 34.2219 40.4466 37.5758 39.1829 40.0867 37.1151C 42.2978 35.2949 44.6416 30.8355 47.21 32.7382C 49.4284 34.3821 45.9026 37.6763 43.8161 40.1458C 45.965 38.7225 49.569 38.4709 50.635 36.6023C 52.0095 34.1884 50.1915 30.4203 50.699 28.2977C 51.2767 25.891 52.4514 25.9076 53.3169 27.3428ZM 26.166 23.7906C 26.5488 23.9057 27.0954 23.8113 27.7986 23.4937C 27.9552 24.4169 28.1087 25.3369 28.2621 26.2641C 27.7187 26.572 27.3183 26.5982 27.0562 26.3403C 26.91 26.2037 26.7837 25.9084 26.6822 25.4536C 26.4026 25.637 26.1205 25.8092 25.84 25.9807C 25.9391 26.5625 26.1037 26.9745 26.3434 27.2007C 26.7813 27.6309 27.4654 27.5809 28.3932 27.0301C 28.4475 27.3626 28.5034 27.6889 28.557 28.0183C 28.7072 27.9167 28.8575 27.8199 29.0069 27.7191C 28.9533 27.3881 28.8942 27.0626 28.8431 26.734C 29.4024 26.2879 29.8156 25.8616 30.0865 25.4568C 30.5724 24.7241 30.7402 23.9232 30.5915 23.0238C 30.4876 22.3975 30.1944 22.0562 29.7141 22.0062C 29.4176 21.9776 28.8862 22.0967 28.1167 22.3618C 27.9832 21.5387 27.8442 20.7076 27.7035 19.8868C 28.1406 19.6161 28.4883 19.5828 28.7472 19.7939C 28.8862 19.9106 28.9877 20.0916 29.05 20.3353C 29.3265 20.1535 29.6078 19.9805 29.8843 19.8098C 29.7708 19.2407 29.5207 18.8922 29.1228 18.7572C 28.7296 18.6199 28.2118 18.7366 27.5741 19.1057C 27.5365 18.885 27.5013 18.662 27.4638 18.4413C 27.3144 18.5437 27.1657 18.6421 27.0147 18.7414C 27.0538 18.9676 27.089 19.1922 27.1306 19.4169C 26.4953 19.8455 26.0358 20.3829 25.7545 21.0148C 25.4692 21.6553 25.3701 22.2237 25.4564 22.7428C 25.5427 23.3231 25.7832 23.6739 26.166 23.7906ZM 29.1731 23.1231C 29.5023 23.1548 29.6997 23.3834 29.7732 23.8041C 29.814 24.0732 29.8004 24.3439 29.7269 24.6162C 29.5894 25.1448 29.249 25.6012 28.7152 25.9886C 28.5682 25.0988 28.4187 24.205 28.2693 23.3167C 28.6824 23.1707 28.9821 23.1024 29.1731 23.1231ZM 26.4233 21.1719C 26.5584 20.8036 26.8349 20.4734 27.2472 20.1789C 27.3759 20.9751 27.5101 21.7696 27.6444 22.5658C 27.28 22.7301 26.9787 22.7833 26.7374 22.7277C 26.4961 22.6754 26.3466 22.4793 26.2923 22.1467C 26.2467 21.8673 26.2915 21.545 26.4233 21.1719ZM 19.5765 3.37608C 20.0855 6.45358 20.6034 9.53426 21.1148 12.6126C 26.9867 16.3933 30.5524 6.31546 36.4195 10.1018C 35.9073 7.01955 35.3958 3.94205 34.8828 0.86455C 29.0157 -2.91624 25.4492 7.15688 19.5765 3.37608ZM 27.4294 3.3229C 29.1779 2.07745 30.9096 3.01094 31.2308 4.93031C 31.5377 6.78142 30.3086 8.90717 28.5674 10.1494C 26.8221 11.3949 25.0896 10.463 24.7724 8.54203C 24.4623 6.69092 25.6905 4.56835 27.4294 3.3229ZM 26.9276 7.06083C 27.1497 7.13148 27.471 7.07512 27.8873 6.8862C 27.9744 7.42597 28.0687 7.96495 28.1558 8.50472C 27.8402 8.68809 27.6036 8.69761 27.4518 8.54917C 27.3663 8.46583 27.2936 8.29358 27.2336 8.03401C 27.069 8.14038 26.9076 8.2396 26.7414 8.342C 26.7973 8.68491 26.8964 8.92066 27.0339 9.05799C 27.2904 9.30803 27.6907 9.28025 28.2309 8.95797C 28.2685 9.15086 28.2965 9.33819 28.3276 9.53664C 28.4179 9.47711 28.5018 9.41995 28.5929 9.35645C 28.5594 9.16515 28.5314 8.97226 28.4978 8.78175C 28.8255 8.51901 29.0668 8.26976 29.2226 8.0348C 29.5111 7.61013 29.6054 7.13783 29.5143 6.61075C 29.4608 6.24641 29.285 6.04399 29.0069 6.02177C 28.8287 6.00113 28.5194 6.07019 28.0735 6.22497C 27.9936 5.74156 27.9129 5.25894 27.8314 4.77949C 28.0887 4.61994 28.2901 4.60248 28.4395 4.73107C 28.5202 4.79378 28.5778 4.90332 28.6177 5.04462C 28.7815 4.93904 28.9454 4.83823 29.1076 4.73901C 29.0428 4.40641 28.8934 4.20321 28.6641 4.12541C 28.4339 4.04365 28.1279 4.11271 27.7611 4.32704C 27.7387 4.19924 27.7179 4.06747 27.6955 3.93967C 27.6084 3.99762 27.5205 4.05477 27.4318 4.11668C 27.4542 4.24845 27.4726 4.37784 27.4974 4.50961C 27.1258 4.76124 26.8573 5.0724 26.6926 5.44627C 26.5232 5.81935 26.4673 6.15433 26.516 6.45517C 26.5656 6.79174 26.7094 6.99177 26.9276 7.06083ZM 28.6864 6.67346C 28.8774 6.69013 28.9941 6.82031 29.0357 7.07035C 29.0644 7.22752 29.0532 7.3839 29.0093 7.54504C 28.927 7.8562 28.7328 8.1245 28.4195 8.34835C 28.3308 7.83159 28.2469 7.31008 28.1574 6.78777C 28.4004 6.69648 28.5762 6.65838 28.6864 6.67346ZM 27.0786 5.53041C 27.1569 5.32085 27.3191 5.12082 27.5621 4.95174C 27.6388 5.42008 27.7187 5.88365 27.7954 6.34722C 27.5805 6.44326 27.4055 6.47343 27.2632 6.44326C 27.125 6.41151 27.0371 6.29641 27.0035 6.10035C 26.9763 5.93683 27.0003 5.7495 27.0786 5.53041Z" fill="#333333"/>
</g>
</g>
</g>
</g>
</svg>

