<svg width="294" height="243" viewBox="0 0 294 243" version="1.1" xmlns="http://www.w3.org/2000/svg" xmlns:xlink="http://www.w3.org/1999/xlink">
<g id="Canvas" fill="none">
<g id="undraw_address_udes" opacity="0.55">
<g id="Vector">
<path d="M 100.901 0L 5.57079e-06 0L 5.57079e-06 193.273L 100.901 193.273L 100.901 0Z" transform="matrix(0.638086 -0.769965 0.785063 0.619416 77.0024 80.8513)" fill="url(#paint0_linear)"/>
</g>
<g id="Vector_2">
<path d="M 190.355 0L 0 0L 0 98.1458L 190.355 98.1458L 190.355 0Z" transform="matrix(0.785063 0.619416 -0.638086 0.769965 141.395 4.92188)" fill="white"/>
</g>
<g id="Group" opacity="0.3">
<g id="&#60;Rectangle&#62;" opacity="0.3">
<path d="M 182.186 -2.08905e-06L 4.54811e-06 -2.08905e-06L 4.54811e-06 89.5349L 182.186 89.5349L 182.186 -2.08905e-06Z" transform="matrix(0.785063 0.619416 -0.638086 0.769965 141.995 10.6553)" fill="#6C63FF"/>
</g>
<g id="Group_2" opacity="0.3">
<g id="Vector_3" opacity="0.3">
<path d="M 36.9419 5.82512L 110.3 117.163L 154.926 122.826L 232.84 81.3524L 171.335 6.91555L 62.3254 111.073L -1.13876e-06 89.6317L 111.357 4.88733e-08L 202.154 128.819" transform="matrix(0.856788 0.515669 -0.515669 0.856788 104.221 -20.5828)" fill="#6C63FF"/>
<path d="M 36.9419 5.82512L 110.3 117.163L 154.926 122.826L 232.84 81.3524L 171.335 6.91555L 62.3254 111.073L -1.13876e-06 89.6317L 111.357 4.88733e-08L 202.154 128.819" stroke-width="5" stroke-miterlimit="10" transform="matrix(0.856788 0.515669 -0.515669 0.856788 104.221 -20.5828)" stroke="white"/>
</g>
</g>
</g>
<g id="Vector_4">
<path d="M 33.7802 17.8908C 32.4866 26.432 13.2974 44.2945 13.2974 44.2945C 13.2974 44.2945 -1.21196 22.1557 0.0816226 13.6144C 0.365047 11.5706 1.08851 9.59855 2.21011 7.81247C 3.3317 6.0264 4.82915 4.46179 6.61574 3.20924C 8.40233 1.95669 10.4426 1.04109 12.6183 0.515466C 14.794 -0.0101608 17.0621 -0.135375 19.291 0.147074C 21.52 0.429524 23.6656 1.11403 25.6036 2.16094C 27.5417 3.20786 29.2336 4.59639 30.5815 6.24613C 31.9293 7.89587 32.9064 9.77404 33.456 11.7719C 34.0056 13.7697 34.1168 15.8476 33.7833 17.8851L 33.7802 17.8908Z" transform="matrix(0.856788 0.515669 -0.515669 0.856788 179.44 22.7588)" fill="url(#paint1_linear)"/>
</g>
<g id="Vector_5">
<path d="M 31.6885 16.6116C 30.4758 24.6233 12.4744 41.3812 12.4744 41.3812C 12.4744 41.3812 -1.13625 20.6146 0.0764851 12.6029C 0.657496 8.76516 2.87982 5.29591 6.25457 2.95836C 9.62931 0.620814 13.88 -0.393551 18.0717 0.138411C 22.2633 0.670373 26.0524 2.70509 28.6054 5.79494C 31.1585 8.8848 32.2664 12.7767 31.6854 16.6144L 31.6885 16.6116Z" transform="matrix(0.856788 0.515669 -0.515669 0.856788 179.485 24.5942)" fill="#6C63FF"/>
</g>
<g id="Vector_6">
<path d="M 7.33599 15.9341C 11.3875 15.9341 14.672 12.3671 14.672 7.96703C 14.672 3.56696 11.3875 0 7.33599 0C 3.28444 0 0 3.56696 0 7.96703C 0 12.3671 3.28444 15.9341 7.33599 15.9341Z" transform="matrix(0.638086 -0.769965 0.785063 0.619416 175.372 45.1067)" fill="white"/>
</g>
<g id="Vector_7">
<path d="M 0 -1.56395e-06L 0 7.31984L 0 145.073L 228.495 145.073L 228.495 7.31984L 228.495 -1.56395e-06L 0 -1.56395e-06Z" transform="matrix(0.856788 0.515669 -0.515669 0.856788 23.8098 0.20166)" fill="url(#paint2_linear)"/>
</g>
<g id="Vector_8">
<path d="M 222.684 1.91149e-06L 0 1.91149e-06L 0 133.468L 222.684 133.468L 222.684 1.91149e-06Z" transform="matrix(0.856788 0.515669 -0.515669 0.856788 22.0598 9.68213)" fill="white"/>
</g>
<g id="Vector_9">
<path d="M 222.684 0L 0 0L 0 9.81957L 222.684 9.81957L 222.684 0Z" transform="matrix(0.856788 0.515669 -0.515669 0.856788 25.3337 4.24243)" fill="#F5F5F5"/>
</g>
<g id="Vector_10">
<path d="M 2.59961 4.76031C 4.03534 4.76031 5.19923 3.69468 5.19923 2.38016C 5.19923 1.06563 4.03534 0 2.59961 0C 1.16389 0 0 1.06563 0 2.38016C 0 3.69468 1.16389 4.76031 2.59961 4.76031Z" transform="matrix(0.856788 0.515669 -0.515669 0.856788 29.1377 9.31323)" fill="#FF5252"/>
</g>
<g id="Vector_11">
<path d="M 2.59961 4.76031C 4.03534 4.76031 5.19923 3.69468 5.19923 2.38016C 5.19923 1.06563 4.03534 0 2.59961 0C 1.16389 0 0 1.06563 0 2.38016C 0 3.69468 1.16389 4.76031 2.59961 4.76031Z" transform="matrix(0.856788 0.515669 -0.515669 0.856788 35.2654 13.0012)" fill="#FFFF00"/>
</g>
<g id="Vector_12">
<path d="M 2.59961 4.76031C 4.03534 4.76031 5.19923 3.69468 5.19923 2.38016C 5.19923 1.06563 4.03534 0 2.59961 0C 1.16389 0 0 1.06563 0 2.38016C 0 3.69468 1.16389 4.76031 2.59961 4.76031Z" transform="matrix(0.856788 0.515669 -0.515669 0.856788 41.3906 16.6877)" fill="#69F0AE"/>
</g>
<g id="Vector_13" opacity="0.5">
<path d="M 40.9532 -3.47544e-06L 0 -3.47544e-06L 0 4.01723L 40.9532 4.01723L 40.9532 -3.47544e-06Z" transform="matrix(0.856788 0.515669 -0.515669 0.856788 81.1638 86.9048)" fill="#6C63FF"/>
</g>
<g id="Vector_14">
<path d="M 44.8527 -2.08526e-06L 0 -2.08526e-06L 0 4.01723L 44.8527 4.01723L 44.8527 -2.08526e-06Z" transform="matrix(0.856788 0.515669 -0.515669 0.856788 46.9226 86.4436)" fill="#E0E0E0"/>
</g>
<g id="Vector_15">
<path d="M 44.8527 6.95087e-06L 4.55506e-06 6.95087e-06L 4.55506e-06 4.01723L 44.8527 4.01723L 44.8527 6.95087e-06Z" transform="matrix(-0.856788 -0.515669 0.515669 -0.856788 130.621 141.508)" fill="#E0E0E0"/>
</g>
<g id="Vector_16">
<path d="M 100.107 -2.78035e-06L 0 -2.78035e-06L 0 4.01723L 100.107 4.01723L 100.107 -2.78035e-06Z" transform="matrix(0.856788 0.515669 -0.515669 0.856788 42.3315 93.7522)" fill="#E0E0E0"/>
</g>
<g id="Vector_17">
<path d="M 100.107 -3.47544e-06L 0 -3.47544e-06L 0 4.01723L 100.107 4.01723L 100.107 -3.47544e-06Z" transform="matrix(0.856788 0.515669 -0.515669 0.856788 37.8813 101.146)" fill="#E0E0E0"/>
</g>
<g id="Vector_18">
<path d="M 41.6031 -4.17052e-06L 0 -4.17052e-06L 0 7.43941L 41.6031 7.43941L 41.6031 -4.17052e-06Z" transform="matrix(0.856788 0.515669 -0.515669 0.856788 53.4316 132.041)" fill="url(#paint3_linear)"/>
</g>
<g id="Vector_19">
<path d="M 40.9532 -5.5607e-06L 2.65712e-06 -5.5607e-06L 2.65712e-06 6.08705L 40.9532 6.08705L 40.9532 -5.5607e-06Z" transform="matrix(0.856788 0.515669 -0.515669 0.856788 53.3608 132.786)" fill="#6C63FF"/>
</g>
</g>
</g>
<defs>

<linearGradient id="paint0_linear" x2="1" gradientUnits="userSpaceOnUse" gradientTransform="translate(0 41.4084) scale(100.898 110.932)">
<stop stop-color="#808080" stop-opacity="0.25"/>
<stop offset="0.54" stop-color="#808080" stop-opacity="0.12"/>
<stop offset="1" stop-color="#808080" stop-opacity="0.1"/>
</linearGradient>
<linearGradient id="paint1_linear" x2="1" gradientUnits="userSpaceOnUse" gradientTransform="matrix(1034.34 -6833.57 5240.93 664.993 16931.1 12804.7)">
<stop stop-color="#808080" stop-opacity="0.25"/>
<stop offset="0.54" stop-color="#808080" stop-opacity="0.12"/>
<stop offset="1" stop-color="#808080" stop-opacity="0.1"/>
</linearGradient>
<linearGradient id="paint2_linear" x2="1" gradientUnits="userSpaceOnUse" gradientTransform="matrix(0 -73921.9 116430 0 25734.3 104896)">
<stop stop-color="#808080" stop-opacity="0.25"/>
<stop offset="0.54" stop-color="#808080" stop-opacity="0.12"/>
<stop offset="1" stop-color="#808080" stop-opacity="0.1"/>
</linearGradient>
<linearGradient id="paint3_linear" x2="1" gradientUnits="userSpaceOnUse" gradientTransform="matrix(0 -194.392 1087.09 0 14730.6 4335.24)">
<stop stop-color="#808080" stop-opacity="0.25"/>
<stop offset="0.54" stop-color="#808080" stop-opacity="0.12"/>
<stop offset="1" stop-color="#808080" stop-opacity="0.1"/>
</linearGradient>

</defs>
</svg>

