<svg width="56" height="56" viewBox="0 0 56 56" version="1.1" xmlns="http://www.w3.org/2000/svg" xmlns:xlink="http://www.w3.org/1999/xlink">
<g id="Canvas" fill="none">
<g id="upload">
<g id="Group">
<g id="Group_2">
<g id="Vector">
<path d="M 54.5744 1.51916e-06C 53.7872 1.51916e-06 53.1488 0.726163 53.1488 1.62207L 53.1488 7.82015C 53.1488 11.3977 50.5907 14.3083 47.4465 14.3083L 8.55345 14.3083C 5.40925 14.3083 2.85119 11.3977 2.85119 7.82015L 2.85119 1.62207C 2.85119 0.726163 2.21298 1.51916e-06 1.42559 1.51916e-06C 0.638203 1.51916e-06 0 0.726163 0 1.62207L 0 7.82015C 0 13.1865 3.83709 17.5525 8.55345 17.5525L 47.4465 17.5525C 52.1629 17.5525 56 13.1865 56 7.82015L 56 1.62207C 56 0.726163 55.3618 1.51916e-06 54.5744 1.51916e-06Z" transform="translate(0 38.4475)" fill="#333333"/>
</g>
</g>
</g>
<g id="Group_3">
<g id="Group_4">
<g id="Vector_2">
<path d="M 37.2641 -9.11495e-07L 1.42559 -9.11495e-07C 0.638422 -9.11495e-07 3.53813e-07 0.726161 3.53813e-07 1.62207C 3.53813e-07 2.51798 0.638203 3.24415 1.42559 3.24415L 37.264 3.24415C 38.0513 3.24415 38.6895 2.51798 38.6895 1.62207C 38.6895 0.726161 38.0513 -9.11495e-07 37.2641 -9.11495e-07Z" transform="translate(8.65527 44.8386)" fill="#006ED1"/>
</g>
</g>
</g>
<g id="Group_5">
<g id="Group_6">
<g id="Vector_3">
<path d="M 29.1065 13.1696L 17.1655 1.03193C 15.8119 -0.343854 13.7705 -0.344103 12.4168 1.03193L 0.475905 13.1695C -0.111329 13.7662 -0.162079 14.7917 0.362484 15.4599C 0.886937 16.1278 1.78808 16.186 2.37553 15.5889L 13.3657 4.41783L 13.3657 35.855C 13.3657 36.7509 14.0042 37.4771 14.7913 37.4771C 15.5787 37.4771 16.2169 36.7509 16.2169 35.855L 16.2169 4.41783L 27.2072 15.5889C 27.4791 15.8653 27.8183 16.0015 28.1563 16.0015C 28.5482 16.0015 28.9383 15.8186 29.2201 15.46C 29.7443 14.7918 29.6936 13.7666 29.1065 13.1696Z" transform="translate(13.2087 0)" fill="#333333"/>
</g>
</g>
</g>
</g>
</g>
</svg>

